<?xml version="1.0" encoding="UTF-8"?><svg xmlns="http://www.w3.org/2000/svg" xmlns:xlink="http://www.w3.org/1999/xlink" contentScriptType="text/ecmascript" width="375pt" zoomAndPan="magnify" contentStyleType="text/css" viewBox="0 0 375 374.999991" height="374.999991pt" preserveAspectRatio="xMidYMid meet" version="1.2"><defs><g/></defs><g xml:id="surface1" id="surface1"><g style="fill:rgb(100%,0%,100%);fill-opacity:1;"><g transform="translate(21.138196, 191.252186)"><path style="stroke:none;" d="M 22.191406 -33.695312 C 19.878906 -33.695312 18.339844 -33.644531 17.617188 -33.503906 C 16.945312 -33.40625 16.367188 -33.164062 15.980469 -32.78125 C 15.597656 -32.394531 15.257812 -31.671875 15.019531 -30.660156 C 14.921875 -30.085938 14.679688 -28.832031 14.390625 -26.957031 L 14.246094 -25.65625 L 21.082031 -25.65625 L 21.226562 -26.957031 Z M 13.960938 -23.875 L 11.839844 -8.519531 C 11.792969 -8.039062 11.746094 -7.75 11.648438 -7.558594 C 11.648438 -7.363281 11.550781 -7.171875 11.457031 -7.074219 C 11.359375 -6.980469 11.214844 -6.882812 10.976562 -6.835938 C 10.832031 -6.835938 10.492188 -6.785156 9.914062 -6.785156 L 4.285156 -6.785156 C 3.945312 -6.785156 3.707031 -6.835938 3.515625 -6.835938 C 3.320312 -6.882812 3.128906 -6.929688 2.9375 -7.027344 C 2.742188 -7.171875 2.550781 -7.363281 2.308594 -7.558594 C 2.117188 -7.75 1.78125 -8.136719 1.25 -8.617188 L 0.914062 -6.402344 C 0.722656 -5.054688 0.578125 -4.042969 0.53125 -3.417969 C 0.53125 -3.128906 0.480469 -2.839844 0.480469 -2.597656 C 0.480469 -2.023438 0.578125 -1.539062 0.769531 -1.15625 C 1.058594 -0.625 1.683594 -0.289062 2.695312 -0.144531 C 3.371094 -0.046875 4.523438 0 6.257812 0 L 11.261719 0 C 12.996094 0 14.152344 -0.046875 14.824219 -0.144531 C 15.980469 -0.289062 16.75 -0.675781 17.136719 -1.300781 C 17.472656 -1.78125 17.714844 -2.503906 17.90625 -3.5625 C 18.050781 -4.140625 18.242188 -5.246094 18.4375 -6.785156 L 20.792969 -23.875 Z M 13.960938 -23.875 "/></g></g><g style="fill:rgb(100%,0%,100%);fill-opacity:1;"><g transform="translate(42.363014, 191.252186)"><path style="stroke:none;" d="M 21.949219 -23.875 L 3.320312 -23.875 L 3.320312 -23.058594 C 3.320312 -21.804688 3.371094 -20.84375 3.371094 -20.265625 C 3.464844 -19.207031 3.660156 -18.484375 3.945312 -18.050781 C 4.285156 -17.617188 4.863281 -17.328125 5.726562 -17.183594 C 6.304688 -17.136719 7.507812 -17.089844 9.242188 -17.089844 L 19.832031 -17.089844 C 19.785156 -16.558594 19.734375 -16.222656 19.6875 -16.027344 C 19.6875 -15.835938 19.640625 -15.691406 19.542969 -15.597656 C 19.445312 -15.5 19.300781 -15.402344 19.109375 -15.355469 C 19.011719 -15.355469 18.722656 -15.308594 18.339844 -15.308594 L 8.277344 -15.308594 C 6.5 -15.308594 5.246094 -15.257812 4.574219 -15.164062 C 3.753906 -15.066406 3.128906 -14.777344 2.695312 -14.34375 C 2.308594 -13.960938 1.972656 -13.1875 1.734375 -12.035156 C 1.636719 -11.457031 1.445312 -10.300781 1.203125 -8.566406 L 0.914062 -6.785156 C 0.675781 -4.863281 0.53125 -3.5625 0.480469 -2.886719 L 0.480469 -2.597656 C 0.480469 -1.828125 0.578125 -1.300781 0.867188 -0.914062 C 1.15625 -0.578125 1.636719 -0.335938 2.308594 -0.191406 C 2.984375 -0.0976562 4.476562 0 6.785156 0 L 17.230469 0 C 19.640625 0 21.179688 -0.0976562 21.851562 -0.191406 C 22.527344 -0.335938 23.058594 -0.53125 23.441406 -0.816406 C 23.875 -1.15625 24.210938 -1.683594 24.40625 -2.359375 C 24.644531 -3.03125 24.933594 -4.476562 25.222656 -6.785156 L 25.898438 -11.695312 L 26.667969 -17.089844 C 26.90625 -18.820312 27.050781 -19.976562 27.050781 -20.554688 C 27.101562 -20.84375 27.101562 -21.035156 27.101562 -21.226562 C 27.101562 -22.238281 26.859375 -22.914062 26.378906 -23.25 C 26.089844 -23.488281 25.609375 -23.632812 24.933594 -23.730469 C 24.355469 -23.828125 23.34375 -23.875 21.949219 -23.875 Z M 9.144531 -8.566406 L 18.628906 -8.566406 C 18.582031 -8.039062 18.53125 -7.703125 18.484375 -7.507812 C 18.4375 -7.316406 18.386719 -7.125 18.292969 -7.027344 C 18.242188 -6.929688 18.148438 -6.882812 17.953125 -6.835938 C 17.859375 -6.835938 17.570312 -6.785156 17.183594 -6.785156 L 7.75 -6.785156 C 7.847656 -7.171875 7.894531 -7.460938 7.894531 -7.605469 C 7.941406 -7.992188 7.992188 -8.230469 8.085938 -8.328125 C 8.183594 -8.421875 8.277344 -8.519531 8.421875 -8.519531 C 8.519531 -8.566406 8.761719 -8.566406 9.144531 -8.566406 Z M 9.144531 -8.566406 "/></g></g><g style="fill:rgb(100%,0%,100%);fill-opacity:1;"><g transform="translate(69.892714, 191.252186)"><path style="stroke:none;" d="M 1.347656 -23.921875 C 1.828125 -23.441406 2.117188 -23.105469 2.261719 -22.914062 C 2.550781 -22.625 2.695312 -22.335938 2.792969 -22.09375 C 2.886719 -21.902344 2.886719 -21.707031 2.886719 -21.421875 C 2.886719 -21.226562 2.886719 -20.890625 2.792969 -20.410156 L 2.308594 -17.136719 L 0.867188 -6.785156 C 0.722656 -5.632812 0.625 -4.765625 0.578125 -4.285156 C 0.480469 -3.609375 0.433594 -3.082031 0.433594 -2.648438 C 0.433594 -2.023438 0.53125 -1.539062 0.722656 -1.203125 C 1.011719 -0.675781 1.589844 -0.335938 2.550781 -0.144531 C 3.226562 -0.046875 4.476562 0 6.304688 0 L 17.375 0 C 17.28125 0.867188 17.183594 1.492188 17.089844 1.78125 C 17.039062 2.167969 16.894531 2.453125 16.703125 2.648438 C 16.558594 2.839844 16.269531 2.9375 15.882812 3.03125 C 15.644531 3.03125 15.113281 3.082031 14.246094 3.082031 L 5.921875 3.082031 C 4.476562 3.082031 3.417969 3.082031 2.839844 3.175781 C 2.023438 3.226562 1.394531 3.417969 0.914062 3.707031 C 0.335938 4.042969 -0.144531 4.765625 -0.53125 5.921875 C -0.722656 6.546875 -1.011719 7.847656 -1.445312 9.867188 L 15.980469 9.867188 C 18.582031 9.867188 20.214844 9.769531 20.890625 9.578125 C 21.566406 9.386719 22.046875 9.144531 22.335938 8.761719 C 22.71875 8.277344 23.058594 7.558594 23.25 6.59375 C 23.394531 5.96875 23.585938 4.8125 23.777344 3.082031 L 24.210938 0 L 25.175781 -6.785156 L 26.617188 -17.136719 C 26.90625 -19.253906 27.050781 -20.648438 27.050781 -21.277344 C 27.050781 -21.46875 27.050781 -21.660156 27.003906 -21.757812 C 27.003906 -22.527344 26.761719 -23.058594 26.28125 -23.34375 C 25.898438 -23.632812 25.175781 -23.828125 24.164062 -23.875 C 23.585938 -23.921875 22.480469 -23.921875 20.746094 -23.921875 L 19.785156 -17.136719 L 18.582031 -8.519531 C 18.484375 -8.136719 18.4375 -7.847656 18.386719 -7.652344 C 18.339844 -7.414062 18.242188 -7.21875 18.148438 -7.074219 C 18.050781 -6.980469 17.953125 -6.929688 17.761719 -6.882812 C 17.617188 -6.835938 17.183594 -6.785156 16.511719 -6.785156 L 7.75 -6.785156 L 9.195312 -17.136719 C 9.484375 -19.398438 9.675781 -20.746094 9.675781 -21.132812 L 9.675781 -21.707031 C 9.675781 -22.382812 9.578125 -22.914062 9.289062 -23.199219 C 9.050781 -23.488281 8.617188 -23.683594 7.992188 -23.777344 C 7.507812 -23.875 6.691406 -23.921875 5.488281 -23.921875 Z M 1.347656 -23.921875 "/></g></g><g style="fill:rgb(100%,0%,100%);fill-opacity:1;"><g transform="translate(97.374279, 191.252186)"><path style="stroke:none;" d="M 21.949219 -23.875 L 3.320312 -23.875 L 3.320312 -23.058594 C 3.320312 -21.804688 3.371094 -20.84375 3.371094 -20.265625 C 3.464844 -19.207031 3.660156 -18.484375 3.945312 -18.050781 C 4.285156 -17.617188 4.863281 -17.328125 5.726562 -17.183594 C 6.304688 -17.136719 7.507812 -17.089844 9.242188 -17.089844 L 19.832031 -17.089844 C 19.785156 -16.558594 19.734375 -16.222656 19.6875 -16.027344 C 19.6875 -15.835938 19.640625 -15.691406 19.542969 -15.597656 C 19.445312 -15.5 19.300781 -15.402344 19.109375 -15.355469 C 19.011719 -15.355469 18.722656 -15.308594 18.339844 -15.308594 L 8.277344 -15.308594 C 6.5 -15.308594 5.246094 -15.257812 4.574219 -15.164062 C 3.753906 -15.066406 3.128906 -14.777344 2.695312 -14.34375 C 2.308594 -13.960938 1.972656 -13.1875 1.734375 -12.035156 C 1.636719 -11.457031 1.445312 -10.300781 1.203125 -8.566406 L 0.914062 -6.785156 C 0.675781 -4.863281 0.53125 -3.5625 0.480469 -2.886719 L 0.480469 -2.597656 C 0.480469 -1.828125 0.578125 -1.300781 0.867188 -0.914062 C 1.15625 -0.578125 1.636719 -0.335938 2.308594 -0.191406 C 2.984375 -0.0976562 4.476562 0 6.785156 0 L 17.230469 0 C 19.640625 0 21.179688 -0.0976562 21.851562 -0.191406 C 22.527344 -0.335938 23.058594 -0.53125 23.441406 -0.816406 C 23.875 -1.15625 24.210938 -1.683594 24.40625 -2.359375 C 24.644531 -3.03125 24.933594 -4.476562 25.222656 -6.785156 L 25.898438 -11.695312 L 26.667969 -17.089844 C 26.90625 -18.820312 27.050781 -19.976562 27.050781 -20.554688 C 27.101562 -20.84375 27.101562 -21.035156 27.101562 -21.226562 C 27.101562 -22.238281 26.859375 -22.914062 26.378906 -23.25 C 26.089844 -23.488281 25.609375 -23.632812 24.933594 -23.730469 C 24.355469 -23.828125 23.34375 -23.875 21.949219 -23.875 Z M 9.144531 -8.566406 L 18.628906 -8.566406 C 18.582031 -8.039062 18.53125 -7.703125 18.484375 -7.507812 C 18.4375 -7.316406 18.386719 -7.125 18.292969 -7.027344 C 18.242188 -6.929688 18.148438 -6.882812 17.953125 -6.835938 C 17.859375 -6.835938 17.570312 -6.785156 17.183594 -6.785156 L 7.75 -6.785156 C 7.847656 -7.171875 7.894531 -7.460938 7.894531 -7.605469 C 7.941406 -7.992188 7.992188 -8.230469 8.085938 -8.328125 C 8.183594 -8.421875 8.277344 -8.519531 8.421875 -8.519531 C 8.519531 -8.566406 8.761719 -8.566406 9.144531 -8.566406 Z M 9.144531 -8.566406 "/></g></g><g style="fill:rgb(100%,0%,100%);fill-opacity:1;"><g transform="translate(124.903978, 191.252186)"><path style="stroke:none;" d="M 2.359375 -17.089844 L 2.117188 -15.355469 C 1.828125 -13.429688 1.636719 -12.179688 1.539062 -11.550781 L 1.539062 -10.976562 C 1.539062 -10.203125 1.734375 -9.675781 2.023438 -9.339844 C 2.40625 -9 3.03125 -8.761719 3.996094 -8.664062 C 4.574219 -8.617188 5.535156 -8.566406 6.835938 -8.566406 L 18.628906 -8.566406 C 18.582031 -8.136719 18.53125 -7.847656 18.484375 -7.652344 C 18.484375 -7.414062 18.386719 -7.21875 18.292969 -7.074219 C 18.195312 -6.980469 18.050781 -6.882812 17.859375 -6.835938 C 17.714844 -6.835938 17.328125 -6.785156 16.75 -6.785156 L 0.914062 -6.785156 C 0.625 -4.667969 0.480469 -3.320312 0.480469 -2.648438 C 0.480469 -1.925781 0.578125 -1.394531 0.816406 -1.011719 C 1.105469 -0.675781 1.539062 -0.433594 2.117188 -0.242188 C 2.792969 -0.144531 4.332031 -0.046875 6.835938 -0.046875 L 17.425781 -0.046875 C 19.878906 -0.046875 21.46875 -0.144531 22.140625 -0.242188 C 22.863281 -0.433594 23.394531 -0.722656 23.777344 -1.105469 C 24.066406 -1.492188 24.261719 -1.972656 24.453125 -2.597656 C 24.644531 -3.273438 24.933594 -4.667969 25.222656 -6.785156 L 25.464844 -8.566406 C 25.703125 -10.492188 25.847656 -11.746094 25.847656 -12.324219 L 25.847656 -12.613281 C 25.847656 -13.476562 25.703125 -14.105469 25.367188 -14.488281 C 25.03125 -14.875 24.355469 -15.164062 23.296875 -15.257812 C 22.71875 -15.355469 21.46875 -15.355469 19.542969 -15.355469 L 8.953125 -15.355469 C 9.050781 -15.882812 9.097656 -16.222656 9.097656 -16.367188 C 9.144531 -16.558594 9.195312 -16.703125 9.289062 -16.800781 C 9.386719 -16.945312 9.578125 -17.039062 9.769531 -17.039062 C 9.964844 -17.089844 10.445312 -17.089844 11.121094 -17.089844 L 20.554688 -17.089844 C 22.09375 -17.089844 23.199219 -17.136719 23.777344 -17.230469 C 24.453125 -17.328125 24.933594 -17.425781 25.320312 -17.617188 C 25.992188 -17.953125 26.472656 -18.582031 26.761719 -19.496094 C 27.003906 -20.167969 27.292969 -21.660156 27.582031 -23.875 L 9.722656 -23.875 C 7.992188 -23.875 6.785156 -23.875 6.113281 -23.777344 C 5.246094 -23.683594 4.621094 -23.488281 4.1875 -23.152344 C 3.707031 -22.769531 3.320312 -22.140625 3.082031 -21.179688 C 2.886719 -20.503906 2.648438 -19.15625 2.359375 -17.089844 Z M 2.359375 -17.089844 "/></g></g><g style="fill:rgb(100%,0%,100%);fill-opacity:1;"><g transform="translate(152.241165, 191.252186)"><path style="stroke:none;" d="M 9.144531 -33.742188 C 9.628906 -33.359375 9.964844 -33.117188 10.109375 -32.925781 C 10.398438 -32.730469 10.542969 -32.492188 10.636719 -32.296875 C 10.734375 -32.152344 10.734375 -31.960938 10.734375 -31.722656 C 10.734375 -31.578125 10.734375 -31.289062 10.6875 -30.804688 L 9.722656 -23.875 L 8.710938 -23.875 C 7.316406 -23.875 6.304688 -23.875 5.679688 -23.777344 C 4.863281 -23.683594 4.234375 -23.488281 3.753906 -23.199219 C 3.226562 -22.816406 2.792969 -22.046875 2.503906 -20.84375 C 2.40625 -20.265625 2.214844 -19.011719 1.925781 -17.136719 L 8.761719 -17.136719 L 8.519531 -15.355469 L 7.558594 -8.566406 L 7.316406 -6.835938 C 7.027344 -5.054688 6.835938 -3.851562 6.738281 -3.226562 L 6.738281 -2.453125 C 6.738281 -1.878906 6.835938 -1.394531 7.027344 -1.058594 C 7.316406 -0.625 7.894531 -0.335938 8.761719 -0.191406 C 9.433594 -0.0976562 10.832031 -0.046875 12.898438 -0.046875 L 17.230469 -0.046875 C 19.253906 -0.046875 20.601562 -0.0976562 21.277344 -0.191406 C 22.140625 -0.335938 22.769531 -0.578125 23.152344 -0.960938 C 23.539062 -1.347656 23.875 -1.972656 24.066406 -2.792969 C 24.261719 -3.464844 24.453125 -4.8125 24.742188 -6.835938 L 14.152344 -6.835938 L 14.390625 -8.566406 L 15.355469 -15.355469 L 15.597656 -17.136719 L 19.351562 -17.136719 C 21.46875 -17.136719 22.816406 -17.183594 23.488281 -17.230469 C 24.261719 -17.328125 24.789062 -17.519531 25.175781 -17.761719 C 25.753906 -18.148438 26.183594 -18.773438 26.425781 -19.734375 C 26.617188 -20.410156 26.859375 -21.757812 27.148438 -23.875 L 16.558594 -23.875 L 16.992188 -27.003906 C 17.28125 -29.121094 17.375 -30.46875 17.375 -31.09375 C 17.375 -31.960938 17.230469 -32.539062 16.945312 -32.925781 C 16.65625 -33.261719 16.078125 -33.503906 15.308594 -33.597656 C 14.921875 -33.695312 14.34375 -33.742188 13.574219 -33.742188 Z M 9.144531 -33.742188 "/></g></g><g style="fill:rgb(100%,0%,100%);fill-opacity:1;"><g transform="translate(179.145182, 191.252186)"><path style="stroke:none;" d="M 2.695312 -17.089844 L 0.867188 -4.042969 C 0.816406 -3.515625 0.769531 -3.175781 0.722656 -2.984375 C 0.675781 -2.742188 0.625 -2.503906 0.53125 -2.308594 C 0.433594 -2.023438 0.191406 -1.734375 -0.191406 -1.347656 C -0.386719 -1.105469 -0.769531 -0.675781 -1.445312 0 L 0.578125 0 C 1.636719 0 2.359375 -0.046875 2.792969 -0.046875 C 3.800781 -0.0976562 4.574219 -0.144531 5.054688 -0.242188 C 5.824219 -0.433594 6.355469 -0.722656 6.738281 -1.15625 C 7.027344 -1.539062 7.269531 -2.117188 7.460938 -2.886719 C 7.652344 -3.5625 7.847656 -4.863281 8.085938 -6.785156 L 9.242188 -15.113281 C 9.339844 -15.738281 9.433594 -16.125 9.484375 -16.269531 C 9.578125 -16.558594 9.675781 -16.75 9.769531 -16.847656 C 9.914062 -16.945312 10.15625 -17.039062 10.445312 -17.039062 C 10.6875 -17.089844 11.167969 -17.089844 11.890625 -17.089844 L 20.074219 -17.089844 C 22.09375 -17.089844 23.394531 -17.136719 24.019531 -17.183594 C 25.03125 -17.328125 25.753906 -17.519531 26.183594 -17.90625 C 26.667969 -18.292969 27.003906 -18.964844 27.246094 -19.878906 C 27.4375 -20.554688 27.628906 -21.851562 27.917969 -23.875 L 9.433594 -23.875 C 7.75 -23.875 6.59375 -23.828125 5.921875 -23.683594 C 5.199219 -23.585938 4.667969 -23.34375 4.285156 -22.960938 C 3.851562 -22.574219 3.515625 -21.804688 3.273438 -20.746094 C 3.175781 -20.167969 2.984375 -18.917969 2.695312 -17.089844 Z M 2.695312 -17.089844 "/></g></g><g style="fill:rgb(100%,0%,100%);fill-opacity:1;"><g transform="translate(206.771138, 191.252186)"><path style="stroke:none;" d="M 2.359375 -17.089844 C 2.261719 -16.222656 2.117188 -14.679688 1.734375 -12.273438 C 1.394531 -9.914062 1.105469 -8.085938 0.914062 -6.785156 C 0.675781 -5.007812 0.53125 -3.800781 0.480469 -3.175781 L 0.480469 -2.597656 C 0.480469 -1.925781 0.625 -1.394531 0.816406 -1.011719 C 1.105469 -0.625 1.589844 -0.335938 2.359375 -0.191406 C 3.03125 -0.0976562 4.378906 0 6.449219 0 L 17.761719 0 C 19.929688 0 21.324219 -0.0976562 21.996094 -0.191406 C 22.914062 -0.386719 23.539062 -0.722656 23.921875 -1.300781 C 24.210938 -1.734375 24.453125 -2.40625 24.644531 -3.273438 C 24.789062 -3.898438 24.980469 -5.054688 25.222656 -6.785156 L 26.667969 -17.089844 C 26.957031 -18.917969 27.101562 -20.167969 27.101562 -20.746094 L 27.101562 -21.226562 C 27.101562 -21.949219 27.003906 -22.480469 26.761719 -22.816406 C 26.523438 -23.199219 26.089844 -23.488281 25.511719 -23.585938 C 24.835938 -23.777344 23.34375 -23.828125 20.988281 -23.828125 L 9.914062 -23.828125 C 7.992188 -23.828125 6.691406 -23.828125 6.015625 -23.730469 C 5.054688 -23.632812 4.378906 -23.34375 3.945312 -22.863281 C 3.464844 -22.382812 3.082031 -21.421875 2.792969 -19.929688 C 2.695312 -19.445312 2.550781 -18.484375 2.359375 -17.089844 Z M 11.550781 -17.089844 L 19.832031 -17.089844 L 18.628906 -8.519531 C 18.53125 -7.941406 18.484375 -7.605469 18.386719 -7.414062 C 18.386719 -7.21875 18.292969 -7.074219 18.195312 -6.980469 C 18.097656 -6.882812 17.953125 -6.835938 17.761719 -6.785156 L 7.75 -6.785156 L 8.953125 -15.308594 C 9 -15.597656 9.050781 -15.835938 9.050781 -15.933594 C 9.144531 -16.367188 9.242188 -16.65625 9.339844 -16.75 C 9.484375 -16.894531 9.722656 -16.992188 10.011719 -17.039062 C 10.253906 -17.089844 10.78125 -17.089844 11.550781 -17.089844 Z M 11.550781 -17.089844 "/></g></g><g style="fill:rgb(100%,0%,100%);fill-opacity:1;"><g transform="translate(234.300826, 191.252186)"><path style="stroke:none;" d="M 2.886719 -17.039062 L 2.648438 -15.308594 L 1.683594 -8.519531 L 1.445312 -6.738281 L 0.960938 -3.371094 C 0.914062 -2.886719 0.867188 -2.550781 0.769531 -2.359375 C 0.722656 -2.167969 0.625 -2.023438 0.53125 -1.828125 C 0.386719 -1.636719 0.144531 -1.394531 -0.242188 -1.058594 C -0.433594 -0.867188 -0.816406 -0.53125 -1.445312 0 L 0.769531 0 C 2.648438 0 3.898438 -0.046875 4.574219 -0.0976562 C 5.632812 -0.242188 6.355469 -0.53125 6.785156 -1.011719 C 7.171875 -1.492188 7.507812 -2.214844 7.703125 -3.226562 C 7.847656 -3.851562 8.039062 -5.007812 8.277344 -6.738281 L 8.519531 -8.519531 L 9.484375 -15.308594 C 9.578125 -15.835938 9.628906 -16.171875 9.628906 -16.316406 C 9.722656 -16.605469 9.867188 -16.800781 9.964844 -16.894531 C 10.058594 -16.992188 10.253906 -17.039062 10.445312 -17.039062 C 10.542969 -17.089844 10.6875 -17.089844 10.878906 -17.089844 C 11.070312 -17.089844 11.261719 -17.089844 11.503906 -17.039062 L 20.3125 -17.039062 L 20.074219 -15.308594 L 19.109375 -8.519531 L 18.867188 -6.738281 L 17.90625 0 C 20.3125 0 21.851562 -0.0976562 22.527344 -0.191406 C 23.34375 -0.386719 23.921875 -0.675781 24.308594 -1.105469 C 24.597656 -1.492188 24.835938 -2.023438 25.03125 -2.792969 C 25.222656 -3.417969 25.414062 -4.71875 25.703125 -6.738281 L 25.945312 -8.519531 L 26.90625 -15.308594 L 27.148438 -17.039062 C 27.4375 -19.15625 27.582031 -20.554688 27.582031 -21.179688 C 27.582031 -22.238281 27.339844 -22.914062 26.859375 -23.25 C 26.472656 -23.539062 25.753906 -23.730469 24.742188 -23.777344 C 24.261719 -23.828125 23.585938 -23.828125 22.71875 -23.828125 L 9.195312 -23.828125 C 7.796875 -23.828125 6.785156 -23.777344 6.160156 -23.683594 C 5.292969 -23.585938 4.621094 -23.25 4.234375 -22.71875 C 3.898438 -22.335938 3.609375 -21.613281 3.417969 -20.648438 C 3.320312 -20.074219 3.128906 -18.867188 2.886719 -17.039062 Z M 2.886719 -17.039062 "/></g></g><g style="fill:rgb(100%,0%,100%);fill-opacity:1;"><g transform="translate(262.311795, 191.252186)"><path style="stroke:none;" d="M 2.359375 -17.089844 C 2.261719 -16.222656 2.117188 -14.679688 1.734375 -12.273438 C 1.394531 -9.914062 1.105469 -8.085938 0.914062 -6.785156 C 0.675781 -5.007812 0.53125 -3.800781 0.480469 -3.175781 L 0.480469 -2.597656 C 0.480469 -1.925781 0.625 -1.394531 0.816406 -1.011719 C 1.105469 -0.625 1.589844 -0.335938 2.359375 -0.191406 C 3.03125 -0.0976562 4.378906 0 6.449219 0 L 17.761719 0 C 19.929688 0 21.324219 -0.0976562 21.996094 -0.191406 C 22.914062 -0.386719 23.539062 -0.722656 23.921875 -1.300781 C 24.210938 -1.734375 24.453125 -2.40625 24.644531 -3.273438 C 24.789062 -3.898438 24.980469 -5.054688 25.222656 -6.785156 L 26.667969 -17.089844 C 26.957031 -18.917969 27.101562 -20.167969 27.101562 -20.746094 L 27.101562 -21.226562 C 27.101562 -21.949219 27.003906 -22.480469 26.761719 -22.816406 C 26.523438 -23.199219 26.089844 -23.488281 25.511719 -23.585938 C 24.835938 -23.777344 23.34375 -23.828125 20.988281 -23.828125 L 9.914062 -23.828125 C 7.992188 -23.828125 6.691406 -23.828125 6.015625 -23.730469 C 5.054688 -23.632812 4.378906 -23.34375 3.945312 -22.863281 C 3.464844 -22.382812 3.082031 -21.421875 2.792969 -19.929688 C 2.695312 -19.445312 2.550781 -18.484375 2.359375 -17.089844 Z M 11.550781 -17.089844 L 19.832031 -17.089844 L 18.628906 -8.519531 C 18.53125 -7.941406 18.484375 -7.605469 18.386719 -7.414062 C 18.386719 -7.21875 18.292969 -7.074219 18.195312 -6.980469 C 18.097656 -6.882812 17.953125 -6.835938 17.761719 -6.785156 L 7.75 -6.785156 L 8.953125 -15.308594 C 9 -15.597656 9.050781 -15.835938 9.050781 -15.933594 C 9.144531 -16.367188 9.242188 -16.65625 9.339844 -16.75 C 9.484375 -16.894531 9.722656 -16.992188 10.011719 -17.039062 C 10.253906 -17.089844 10.78125 -17.089844 11.550781 -17.089844 Z M 11.550781 -17.089844 "/></g></g><g style="fill:rgb(100%,0%,100%);fill-opacity:1;"><g transform="translate(289.841494, 191.252186)"><path style="stroke:none;" d="M 2.886719 -17.089844 L 2.648438 -15.308594 L 1.683594 -8.519531 L 1.445312 -6.785156 L 0.960938 -3.371094 C 0.914062 -2.984375 0.867188 -2.695312 0.816406 -2.503906 C 0.722656 -2.261719 0.625 -2.070312 0.480469 -1.828125 C 0.386719 -1.636719 0.144531 -1.347656 -0.242188 -1.058594 C -0.433594 -0.867188 -0.816406 -0.53125 -1.445312 0 L 0.769531 0 C 2.597656 0 3.800781 -0.046875 4.429688 -0.0976562 C 5.34375 -0.191406 6.015625 -0.433594 6.449219 -0.769531 C 6.929688 -1.105469 7.316406 -1.683594 7.507812 -2.550781 C 7.703125 -3.226562 7.992188 -4.621094 8.277344 -6.785156 L 8.519531 -8.519531 L 9.484375 -15.308594 C 9.578125 -15.789062 9.628906 -16.078125 9.628906 -16.222656 C 9.722656 -16.511719 9.769531 -16.75 9.867188 -16.847656 C 10.011719 -16.992188 10.203125 -17.039062 10.445312 -17.039062 C 10.636719 -17.089844 10.976562 -17.089844 11.503906 -17.089844 L 11.261719 -15.308594 L 10.300781 -8.519531 L 10.058594 -6.785156 L 9.097656 0 C 11.601562 0 13.1875 -0.0976562 13.863281 -0.242188 C 14.535156 -0.433594 15.019531 -0.675781 15.308594 -0.960938 C 15.691406 -1.347656 16.027344 -1.972656 16.222656 -2.792969 C 16.414062 -3.464844 16.605469 -4.765625 16.894531 -6.785156 L 17.136719 -8.519531 L 18.097656 -15.308594 C 18.195312 -15.738281 18.242188 -16.027344 18.242188 -16.171875 C 18.339844 -16.511719 18.386719 -16.703125 18.484375 -16.800781 C 18.628906 -16.945312 18.820312 -17.039062 19.011719 -17.039062 C 19.207031 -17.089844 19.640625 -17.089844 20.3125 -17.089844 L 20.074219 -15.308594 L 19.109375 -8.519531 L 18.867188 -6.785156 L 17.90625 0 C 20.3125 0 21.851562 -0.0976562 22.527344 -0.191406 C 23.34375 -0.386719 23.921875 -0.675781 24.308594 -1.105469 C 24.691406 -1.589844 24.933594 -2.261719 25.125 -3.175781 C 25.269531 -3.800781 25.464844 -5.007812 25.703125 -6.785156 L 25.945312 -8.519531 L 26.90625 -15.308594 L 27.148438 -17.089844 C 27.4375 -19.207031 27.582031 -20.554688 27.582031 -21.179688 C 27.582031 -22.046875 27.4375 -22.671875 27.101562 -23.058594 C 26.8125 -23.394531 26.328125 -23.632812 25.609375 -23.730469 C 25.03125 -23.828125 24.066406 -23.875 22.71875 -23.875 C 22.429688 -23.875 21.949219 -23.875 21.277344 -23.828125 L 10.6875 -23.828125 C 10.011719 -23.875 9.484375 -23.875 9.195312 -23.875 C 7.847656 -23.875 6.882812 -23.828125 6.304688 -23.730469 C 5.488281 -23.632812 4.863281 -23.394531 4.476562 -23.007812 C 4.042969 -22.625 3.707031 -21.902344 3.464844 -20.890625 C 3.371094 -20.265625 3.175781 -19.011719 2.886719 -17.089844 Z M 2.886719 -17.089844 "/></g></g><g style="fill:rgb(100%,0%,100%);fill-opacity:1;"><g transform="translate(317.852486, 191.252186)"><path style="stroke:none;" d="M 12.035156 -33.695312 C 9.820312 -33.695312 8.328125 -33.644531 7.605469 -33.550781 C 6.738281 -33.40625 6.113281 -33.070312 5.679688 -32.585938 C 5.34375 -32.203125 5.054688 -31.480469 4.863281 -30.519531 C 4.71875 -29.941406 4.523438 -28.738281 4.234375 -26.90625 L 4.089844 -25.609375 L 10.925781 -25.609375 Z M 3.851562 -23.875 L 0.960938 -3.515625 C 0.914062 -3.03125 0.867188 -2.742188 0.769531 -2.550781 C 0.722656 -2.308594 0.625 -2.070312 0.433594 -1.828125 C 0.289062 -1.636719 0.046875 -1.394531 -0.335938 -1.011719 C -0.53125 -0.816406 -0.867188 -0.480469 -1.445312 0 L 0.816406 0 C 2.550781 0 3.753906 -0.046875 4.378906 -0.0976562 C 5.4375 -0.191406 6.210938 -0.480469 6.691406 -0.914062 C 7.125 -1.347656 7.460938 -2.070312 7.652344 -3.082031 C 7.847656 -3.707031 8.039062 -4.910156 8.277344 -6.738281 L 10.6875 -23.875 Z M 3.851562 -23.875 "/></g></g><g style="fill:rgb(100%,0%,100%);fill-opacity:1;"><g transform="translate(328.922127, 191.252186)"><path style="stroke:none;" d="M 9.53125 -23.828125 C 7.796875 -23.828125 6.59375 -23.777344 5.921875 -23.683594 C 5.054688 -23.585938 4.429688 -23.34375 3.996094 -22.960938 C 3.5625 -22.574219 3.226562 -21.851562 2.984375 -20.84375 C 2.886719 -20.214844 2.695312 -18.964844 2.40625 -17.039062 C 2.261719 -15.882812 2.023438 -14.199219 1.683594 -11.890625 C 1.394531 -9.578125 1.15625 -7.894531 0.960938 -6.738281 C 0.675781 -4.863281 0.53125 -3.609375 0.480469 -2.9375 L 0.480469 -2.597656 C 0.480469 -1.925781 0.625 -1.394531 0.816406 -1.011719 C 1.105469 -0.625 1.589844 -0.335938 2.261719 -0.191406 C 2.9375 -0.0976562 4.429688 0 6.738281 0 L 17.519531 0 C 19.496094 0 20.792969 -0.046875 21.421875 -0.0976562 C 22.382812 -0.191406 23.105469 -0.433594 23.539062 -0.769531 C 24.019531 -1.15625 24.355469 -1.828125 24.550781 -2.695312 C 24.742188 -3.371094 24.933594 -4.71875 25.222656 -6.738281 L 7.796875 -6.738281 L 9 -15.308594 C 9.097656 -15.789062 9.144531 -16.078125 9.144531 -16.269531 C 9.242188 -16.558594 9.339844 -16.75 9.433594 -16.847656 C 9.53125 -16.945312 9.675781 -16.992188 9.867188 -16.992188 C 9.964844 -17.039062 10.203125 -17.089844 10.492188 -17.089844 C 10.6875 -17.089844 10.925781 -17.039062 11.214844 -17.039062 L 19.832031 -17.039062 C 21.660156 -17.089844 22.863281 -17.136719 23.488281 -17.136719 C 24.644531 -17.230469 25.511719 -17.519531 25.992188 -17.953125 C 26.425781 -18.339844 26.761719 -19.011719 26.957031 -19.929688 C 27.148438 -20.601562 27.339844 -21.902344 27.628906 -23.828125 Z M 9.53125 -23.828125 "/></g></g><g style="fill:rgb(0%,100%,100%);fill-opacity:1;"><g transform="translate(18.731282, 191.252186)"><path style="stroke:none;" d="M 22.191406 -33.695312 C 19.878906 -33.695312 18.339844 -33.644531 17.617188 -33.503906 C 16.945312 -33.40625 16.367188 -33.164062 15.980469 -32.78125 C 15.597656 -32.394531 15.257812 -31.671875 15.019531 -30.660156 C 14.921875 -30.085938 14.679688 -28.832031 14.390625 -26.957031 L 14.246094 -25.65625 L 21.082031 -25.65625 L 21.226562 -26.957031 Z M 13.960938 -23.875 L 11.839844 -8.519531 C 11.792969 -8.039062 11.746094 -7.75 11.648438 -7.558594 C 11.648438 -7.363281 11.550781 -7.171875 11.457031 -7.074219 C 11.359375 -6.980469 11.214844 -6.882812 10.976562 -6.835938 C 10.832031 -6.835938 10.492188 -6.785156 9.914062 -6.785156 L 4.285156 -6.785156 C 3.945312 -6.785156 3.707031 -6.835938 3.515625 -6.835938 C 3.320312 -6.882812 3.128906 -6.929688 2.9375 -7.027344 C 2.742188 -7.171875 2.550781 -7.363281 2.308594 -7.558594 C 2.117188 -7.75 1.78125 -8.136719 1.25 -8.617188 L 0.914062 -6.402344 C 0.722656 -5.054688 0.578125 -4.042969 0.53125 -3.417969 C 0.53125 -3.128906 0.480469 -2.839844 0.480469 -2.597656 C 0.480469 -2.023438 0.578125 -1.539062 0.769531 -1.15625 C 1.058594 -0.625 1.683594 -0.289062 2.695312 -0.144531 C 3.371094 -0.046875 4.523438 0 6.257812 0 L 11.261719 0 C 12.996094 0 14.152344 -0.046875 14.824219 -0.144531 C 15.980469 -0.289062 16.75 -0.675781 17.136719 -1.300781 C 17.472656 -1.78125 17.714844 -2.503906 17.90625 -3.5625 C 18.050781 -4.140625 18.242188 -5.246094 18.4375 -6.785156 L 20.792969 -23.875 Z M 13.960938 -23.875 "/></g></g><g style="fill:rgb(0%,100%,100%);fill-opacity:1;"><g transform="translate(39.9561, 191.252186)"><path style="stroke:none;" d="M 21.949219 -23.875 L 3.320312 -23.875 L 3.320312 -23.058594 C 3.320312 -21.804688 3.371094 -20.84375 3.371094 -20.265625 C 3.464844 -19.207031 3.660156 -18.484375 3.945312 -18.050781 C 4.285156 -17.617188 4.863281 -17.328125 5.726562 -17.183594 C 6.304688 -17.136719 7.507812 -17.089844 9.242188 -17.089844 L 19.832031 -17.089844 C 19.785156 -16.558594 19.734375 -16.222656 19.6875 -16.027344 C 19.6875 -15.835938 19.640625 -15.691406 19.542969 -15.597656 C 19.445312 -15.5 19.300781 -15.402344 19.109375 -15.355469 C 19.011719 -15.355469 18.722656 -15.308594 18.339844 -15.308594 L 8.277344 -15.308594 C 6.5 -15.308594 5.246094 -15.257812 4.574219 -15.164062 C 3.753906 -15.066406 3.128906 -14.777344 2.695312 -14.34375 C 2.308594 -13.960938 1.972656 -13.1875 1.734375 -12.035156 C 1.636719 -11.457031 1.445312 -10.300781 1.203125 -8.566406 L 0.914062 -6.785156 C 0.675781 -4.863281 0.53125 -3.5625 0.480469 -2.886719 L 0.480469 -2.597656 C 0.480469 -1.828125 0.578125 -1.300781 0.867188 -0.914062 C 1.15625 -0.578125 1.636719 -0.335938 2.308594 -0.191406 C 2.984375 -0.0976562 4.476562 0 6.785156 0 L 17.230469 0 C 19.640625 0 21.179688 -0.0976562 21.851562 -0.191406 C 22.527344 -0.335938 23.058594 -0.53125 23.441406 -0.816406 C 23.875 -1.15625 24.210938 -1.683594 24.40625 -2.359375 C 24.644531 -3.03125 24.933594 -4.476562 25.222656 -6.785156 L 25.898438 -11.695312 L 26.667969 -17.089844 C 26.90625 -18.820312 27.050781 -19.976562 27.050781 -20.554688 C 27.101562 -20.84375 27.101562 -21.035156 27.101562 -21.226562 C 27.101562 -22.238281 26.859375 -22.914062 26.378906 -23.25 C 26.089844 -23.488281 25.609375 -23.632812 24.933594 -23.730469 C 24.355469 -23.828125 23.34375 -23.875 21.949219 -23.875 Z M 9.144531 -8.566406 L 18.628906 -8.566406 C 18.582031 -8.039062 18.53125 -7.703125 18.484375 -7.507812 C 18.4375 -7.316406 18.386719 -7.125 18.292969 -7.027344 C 18.242188 -6.929688 18.148438 -6.882812 17.953125 -6.835938 C 17.859375 -6.835938 17.570312 -6.785156 17.183594 -6.785156 L 7.75 -6.785156 C 7.847656 -7.171875 7.894531 -7.460938 7.894531 -7.605469 C 7.941406 -7.992188 7.992188 -8.230469 8.085938 -8.328125 C 8.183594 -8.421875 8.277344 -8.519531 8.421875 -8.519531 C 8.519531 -8.566406 8.761719 -8.566406 9.144531 -8.566406 Z M 9.144531 -8.566406 "/></g></g><g style="fill:rgb(0%,100%,100%);fill-opacity:1;"><g transform="translate(67.4858, 191.252186)"><path style="stroke:none;" d="M 1.347656 -23.921875 C 1.828125 -23.441406 2.117188 -23.105469 2.261719 -22.914062 C 2.550781 -22.625 2.695312 -22.335938 2.792969 -22.09375 C 2.886719 -21.902344 2.886719 -21.707031 2.886719 -21.421875 C 2.886719 -21.226562 2.886719 -20.890625 2.792969 -20.410156 L 2.308594 -17.136719 L 0.867188 -6.785156 C 0.722656 -5.632812 0.625 -4.765625 0.578125 -4.285156 C 0.480469 -3.609375 0.433594 -3.082031 0.433594 -2.648438 C 0.433594 -2.023438 0.53125 -1.539062 0.722656 -1.203125 C 1.011719 -0.675781 1.589844 -0.335938 2.550781 -0.144531 C 3.226562 -0.046875 4.476562 0 6.304688 0 L 17.375 0 C 17.28125 0.867188 17.183594 1.492188 17.089844 1.78125 C 17.039062 2.167969 16.894531 2.453125 16.703125 2.648438 C 16.558594 2.839844 16.269531 2.9375 15.882812 3.03125 C 15.644531 3.03125 15.113281 3.082031 14.246094 3.082031 L 5.921875 3.082031 C 4.476562 3.082031 3.417969 3.082031 2.839844 3.175781 C 2.023438 3.226562 1.394531 3.417969 0.914062 3.707031 C 0.335938 4.042969 -0.144531 4.765625 -0.53125 5.921875 C -0.722656 6.546875 -1.011719 7.847656 -1.445312 9.867188 L 15.980469 9.867188 C 18.582031 9.867188 20.214844 9.769531 20.890625 9.578125 C 21.566406 9.386719 22.046875 9.144531 22.335938 8.761719 C 22.71875 8.277344 23.058594 7.558594 23.25 6.59375 C 23.394531 5.96875 23.585938 4.8125 23.777344 3.082031 L 24.210938 0 L 25.175781 -6.785156 L 26.617188 -17.136719 C 26.90625 -19.253906 27.050781 -20.648438 27.050781 -21.277344 C 27.050781 -21.46875 27.050781 -21.660156 27.003906 -21.757812 C 27.003906 -22.527344 26.761719 -23.058594 26.28125 -23.34375 C 25.898438 -23.632812 25.175781 -23.828125 24.164062 -23.875 C 23.585938 -23.921875 22.480469 -23.921875 20.746094 -23.921875 L 19.785156 -17.136719 L 18.582031 -8.519531 C 18.484375 -8.136719 18.4375 -7.847656 18.386719 -7.652344 C 18.339844 -7.414062 18.242188 -7.21875 18.148438 -7.074219 C 18.050781 -6.980469 17.953125 -6.929688 17.761719 -6.882812 C 17.617188 -6.835938 17.183594 -6.785156 16.511719 -6.785156 L 7.75 -6.785156 L 9.195312 -17.136719 C 9.484375 -19.398438 9.675781 -20.746094 9.675781 -21.132812 L 9.675781 -21.707031 C 9.675781 -22.382812 9.578125 -22.914062 9.289062 -23.199219 C 9.050781 -23.488281 8.617188 -23.683594 7.992188 -23.777344 C 7.507812 -23.875 6.691406 -23.921875 5.488281 -23.921875 Z M 1.347656 -23.921875 "/></g></g><g style="fill:rgb(0%,100%,100%);fill-opacity:1;"><g transform="translate(94.967365, 191.252186)"><path style="stroke:none;" d="M 21.949219 -23.875 L 3.320312 -23.875 L 3.320312 -23.058594 C 3.320312 -21.804688 3.371094 -20.84375 3.371094 -20.265625 C 3.464844 -19.207031 3.660156 -18.484375 3.945312 -18.050781 C 4.285156 -17.617188 4.863281 -17.328125 5.726562 -17.183594 C 6.304688 -17.136719 7.507812 -17.089844 9.242188 -17.089844 L 19.832031 -17.089844 C 19.785156 -16.558594 19.734375 -16.222656 19.6875 -16.027344 C 19.6875 -15.835938 19.640625 -15.691406 19.542969 -15.597656 C 19.445312 -15.5 19.300781 -15.402344 19.109375 -15.355469 C 19.011719 -15.355469 18.722656 -15.308594 18.339844 -15.308594 L 8.277344 -15.308594 C 6.5 -15.308594 5.246094 -15.257812 4.574219 -15.164062 C 3.753906 -15.066406 3.128906 -14.777344 2.695312 -14.34375 C 2.308594 -13.960938 1.972656 -13.1875 1.734375 -12.035156 C 1.636719 -11.457031 1.445312 -10.300781 1.203125 -8.566406 L 0.914062 -6.785156 C 0.675781 -4.863281 0.53125 -3.5625 0.480469 -2.886719 L 0.480469 -2.597656 C 0.480469 -1.828125 0.578125 -1.300781 0.867188 -0.914062 C 1.15625 -0.578125 1.636719 -0.335938 2.308594 -0.191406 C 2.984375 -0.0976562 4.476562 0 6.785156 0 L 17.230469 0 C 19.640625 0 21.179688 -0.0976562 21.851562 -0.191406 C 22.527344 -0.335938 23.058594 -0.53125 23.441406 -0.816406 C 23.875 -1.15625 24.210938 -1.683594 24.40625 -2.359375 C 24.644531 -3.03125 24.933594 -4.476562 25.222656 -6.785156 L 25.898438 -11.695312 L 26.667969 -17.089844 C 26.90625 -18.820312 27.050781 -19.976562 27.050781 -20.554688 C 27.101562 -20.84375 27.101562 -21.035156 27.101562 -21.226562 C 27.101562 -22.238281 26.859375 -22.914062 26.378906 -23.25 C 26.089844 -23.488281 25.609375 -23.632812 24.933594 -23.730469 C 24.355469 -23.828125 23.34375 -23.875 21.949219 -23.875 Z M 9.144531 -8.566406 L 18.628906 -8.566406 C 18.582031 -8.039062 18.53125 -7.703125 18.484375 -7.507812 C 18.4375 -7.316406 18.386719 -7.125 18.292969 -7.027344 C 18.242188 -6.929688 18.148438 -6.882812 17.953125 -6.835938 C 17.859375 -6.835938 17.570312 -6.785156 17.183594 -6.785156 L 7.75 -6.785156 C 7.847656 -7.171875 7.894531 -7.460938 7.894531 -7.605469 C 7.941406 -7.992188 7.992188 -8.230469 8.085938 -8.328125 C 8.183594 -8.421875 8.277344 -8.519531 8.421875 -8.519531 C 8.519531 -8.566406 8.761719 -8.566406 9.144531 -8.566406 Z M 9.144531 -8.566406 "/></g></g><g style="fill:rgb(0%,100%,100%);fill-opacity:1;"><g transform="translate(122.497064, 191.252186)"><path style="stroke:none;" d="M 2.359375 -17.089844 L 2.117188 -15.355469 C 1.828125 -13.429688 1.636719 -12.179688 1.539062 -11.550781 L 1.539062 -10.976562 C 1.539062 -10.203125 1.734375 -9.675781 2.023438 -9.339844 C 2.40625 -9 3.03125 -8.761719 3.996094 -8.664062 C 4.574219 -8.617188 5.535156 -8.566406 6.835938 -8.566406 L 18.628906 -8.566406 C 18.582031 -8.136719 18.53125 -7.847656 18.484375 -7.652344 C 18.484375 -7.414062 18.386719 -7.21875 18.292969 -7.074219 C 18.195312 -6.980469 18.050781 -6.882812 17.859375 -6.835938 C 17.714844 -6.835938 17.328125 -6.785156 16.75 -6.785156 L 0.914062 -6.785156 C 0.625 -4.667969 0.480469 -3.320312 0.480469 -2.648438 C 0.480469 -1.925781 0.578125 -1.394531 0.816406 -1.011719 C 1.105469 -0.675781 1.539062 -0.433594 2.117188 -0.242188 C 2.792969 -0.144531 4.332031 -0.046875 6.835938 -0.046875 L 17.425781 -0.046875 C 19.878906 -0.046875 21.46875 -0.144531 22.140625 -0.242188 C 22.863281 -0.433594 23.394531 -0.722656 23.777344 -1.105469 C 24.066406 -1.492188 24.261719 -1.972656 24.453125 -2.597656 C 24.644531 -3.273438 24.933594 -4.667969 25.222656 -6.785156 L 25.464844 -8.566406 C 25.703125 -10.492188 25.847656 -11.746094 25.847656 -12.324219 L 25.847656 -12.613281 C 25.847656 -13.476562 25.703125 -14.105469 25.367188 -14.488281 C 25.03125 -14.875 24.355469 -15.164062 23.296875 -15.257812 C 22.71875 -15.355469 21.46875 -15.355469 19.542969 -15.355469 L 8.953125 -15.355469 C 9.050781 -15.882812 9.097656 -16.222656 9.097656 -16.367188 C 9.144531 -16.558594 9.195312 -16.703125 9.289062 -16.800781 C 9.386719 -16.945312 9.578125 -17.039062 9.769531 -17.039062 C 9.964844 -17.089844 10.445312 -17.089844 11.121094 -17.089844 L 20.554688 -17.089844 C 22.09375 -17.089844 23.199219 -17.136719 23.777344 -17.230469 C 24.453125 -17.328125 24.933594 -17.425781 25.320312 -17.617188 C 25.992188 -17.953125 26.472656 -18.582031 26.761719 -19.496094 C 27.003906 -20.167969 27.292969 -21.660156 27.582031 -23.875 L 9.722656 -23.875 C 7.992188 -23.875 6.785156 -23.875 6.113281 -23.777344 C 5.246094 -23.683594 4.621094 -23.488281 4.1875 -23.152344 C 3.707031 -22.769531 3.320312 -22.140625 3.082031 -21.179688 C 2.886719 -20.503906 2.648438 -19.15625 2.359375 -17.089844 Z M 2.359375 -17.089844 "/></g></g><g style="fill:rgb(0%,100%,100%);fill-opacity:1;"><g transform="translate(149.834251, 191.252186)"><path style="stroke:none;" d="M 9.144531 -33.742188 C 9.628906 -33.359375 9.964844 -33.117188 10.109375 -32.925781 C 10.398438 -32.730469 10.542969 -32.492188 10.636719 -32.296875 C 10.734375 -32.152344 10.734375 -31.960938 10.734375 -31.722656 C 10.734375 -31.578125 10.734375 -31.289062 10.6875 -30.804688 L 9.722656 -23.875 L 8.710938 -23.875 C 7.316406 -23.875 6.304688 -23.875 5.679688 -23.777344 C 4.863281 -23.683594 4.234375 -23.488281 3.753906 -23.199219 C 3.226562 -22.816406 2.792969 -22.046875 2.503906 -20.84375 C 2.40625 -20.265625 2.214844 -19.011719 1.925781 -17.136719 L 8.761719 -17.136719 L 8.519531 -15.355469 L 7.558594 -8.566406 L 7.316406 -6.835938 C 7.027344 -5.054688 6.835938 -3.851562 6.738281 -3.226562 L 6.738281 -2.453125 C 6.738281 -1.878906 6.835938 -1.394531 7.027344 -1.058594 C 7.316406 -0.625 7.894531 -0.335938 8.761719 -0.191406 C 9.433594 -0.0976562 10.832031 -0.046875 12.898438 -0.046875 L 17.230469 -0.046875 C 19.253906 -0.046875 20.601562 -0.0976562 21.277344 -0.191406 C 22.140625 -0.335938 22.769531 -0.578125 23.152344 -0.960938 C 23.539062 -1.347656 23.875 -1.972656 24.066406 -2.792969 C 24.261719 -3.464844 24.453125 -4.8125 24.742188 -6.835938 L 14.152344 -6.835938 L 14.390625 -8.566406 L 15.355469 -15.355469 L 15.597656 -17.136719 L 19.351562 -17.136719 C 21.46875 -17.136719 22.816406 -17.183594 23.488281 -17.230469 C 24.261719 -17.328125 24.789062 -17.519531 25.175781 -17.761719 C 25.753906 -18.148438 26.183594 -18.773438 26.425781 -19.734375 C 26.617188 -20.410156 26.859375 -21.757812 27.148438 -23.875 L 16.558594 -23.875 L 16.992188 -27.003906 C 17.28125 -29.121094 17.375 -30.46875 17.375 -31.09375 C 17.375 -31.960938 17.230469 -32.539062 16.945312 -32.925781 C 16.65625 -33.261719 16.078125 -33.503906 15.308594 -33.597656 C 14.921875 -33.695312 14.34375 -33.742188 13.574219 -33.742188 Z M 9.144531 -33.742188 "/></g></g><g style="fill:rgb(0%,100%,100%);fill-opacity:1;"><g transform="translate(176.738268, 191.252186)"><path style="stroke:none;" d="M 2.695312 -17.089844 L 0.867188 -4.042969 C 0.816406 -3.515625 0.769531 -3.175781 0.722656 -2.984375 C 0.675781 -2.742188 0.625 -2.503906 0.53125 -2.308594 C 0.433594 -2.023438 0.191406 -1.734375 -0.191406 -1.347656 C -0.386719 -1.105469 -0.769531 -0.675781 -1.445312 0 L 0.578125 0 C 1.636719 0 2.359375 -0.046875 2.792969 -0.046875 C 3.800781 -0.0976562 4.574219 -0.144531 5.054688 -0.242188 C 5.824219 -0.433594 6.355469 -0.722656 6.738281 -1.15625 C 7.027344 -1.539062 7.269531 -2.117188 7.460938 -2.886719 C 7.652344 -3.5625 7.847656 -4.863281 8.085938 -6.785156 L 9.242188 -15.113281 C 9.339844 -15.738281 9.433594 -16.125 9.484375 -16.269531 C 9.578125 -16.558594 9.675781 -16.75 9.769531 -16.847656 C 9.914062 -16.945312 10.15625 -17.039062 10.445312 -17.039062 C 10.6875 -17.089844 11.167969 -17.089844 11.890625 -17.089844 L 20.074219 -17.089844 C 22.09375 -17.089844 23.394531 -17.136719 24.019531 -17.183594 C 25.03125 -17.328125 25.753906 -17.519531 26.183594 -17.90625 C 26.667969 -18.292969 27.003906 -18.964844 27.246094 -19.878906 C 27.4375 -20.554688 27.628906 -21.851562 27.917969 -23.875 L 9.433594 -23.875 C 7.75 -23.875 6.59375 -23.828125 5.921875 -23.683594 C 5.199219 -23.585938 4.667969 -23.34375 4.285156 -22.960938 C 3.851562 -22.574219 3.515625 -21.804688 3.273438 -20.746094 C 3.175781 -20.167969 2.984375 -18.917969 2.695312 -17.089844 Z M 2.695312 -17.089844 "/></g></g><g style="fill:rgb(0%,100%,100%);fill-opacity:1;"><g transform="translate(204.364224, 191.252186)"><path style="stroke:none;" d="M 2.359375 -17.089844 C 2.261719 -16.222656 2.117188 -14.679688 1.734375 -12.273438 C 1.394531 -9.914062 1.105469 -8.085938 0.914062 -6.785156 C 0.675781 -5.007812 0.53125 -3.800781 0.480469 -3.175781 L 0.480469 -2.597656 C 0.480469 -1.925781 0.625 -1.394531 0.816406 -1.011719 C 1.105469 -0.625 1.589844 -0.335938 2.359375 -0.191406 C 3.03125 -0.0976562 4.378906 0 6.449219 0 L 17.761719 0 C 19.929688 0 21.324219 -0.0976562 21.996094 -0.191406 C 22.914062 -0.386719 23.539062 -0.722656 23.921875 -1.300781 C 24.210938 -1.734375 24.453125 -2.40625 24.644531 -3.273438 C 24.789062 -3.898438 24.980469 -5.054688 25.222656 -6.785156 L 26.667969 -17.089844 C 26.957031 -18.917969 27.101562 -20.167969 27.101562 -20.746094 L 27.101562 -21.226562 C 27.101562 -21.949219 27.003906 -22.480469 26.761719 -22.816406 C 26.523438 -23.199219 26.089844 -23.488281 25.511719 -23.585938 C 24.835938 -23.777344 23.34375 -23.828125 20.988281 -23.828125 L 9.914062 -23.828125 C 7.992188 -23.828125 6.691406 -23.828125 6.015625 -23.730469 C 5.054688 -23.632812 4.378906 -23.34375 3.945312 -22.863281 C 3.464844 -22.382812 3.082031 -21.421875 2.792969 -19.929688 C 2.695312 -19.445312 2.550781 -18.484375 2.359375 -17.089844 Z M 11.550781 -17.089844 L 19.832031 -17.089844 L 18.628906 -8.519531 C 18.53125 -7.941406 18.484375 -7.605469 18.386719 -7.414062 C 18.386719 -7.21875 18.292969 -7.074219 18.195312 -6.980469 C 18.097656 -6.882812 17.953125 -6.835938 17.761719 -6.785156 L 7.75 -6.785156 L 8.953125 -15.308594 C 9 -15.597656 9.050781 -15.835938 9.050781 -15.933594 C 9.144531 -16.367188 9.242188 -16.65625 9.339844 -16.75 C 9.484375 -16.894531 9.722656 -16.992188 10.011719 -17.039062 C 10.253906 -17.089844 10.78125 -17.089844 11.550781 -17.089844 Z M 11.550781 -17.089844 "/></g></g><g style="fill:rgb(0%,100%,100%);fill-opacity:1;"><g transform="translate(231.893912, 191.252186)"><path style="stroke:none;" d="M 2.886719 -17.039062 L 2.648438 -15.308594 L 1.683594 -8.519531 L 1.445312 -6.738281 L 0.960938 -3.371094 C 0.914062 -2.886719 0.867188 -2.550781 0.769531 -2.359375 C 0.722656 -2.167969 0.625 -2.023438 0.53125 -1.828125 C 0.386719 -1.636719 0.144531 -1.394531 -0.242188 -1.058594 C -0.433594 -0.867188 -0.816406 -0.53125 -1.445312 0 L 0.769531 0 C 2.648438 0 3.898438 -0.046875 4.574219 -0.0976562 C 5.632812 -0.242188 6.355469 -0.53125 6.785156 -1.011719 C 7.171875 -1.492188 7.507812 -2.214844 7.703125 -3.226562 C 7.847656 -3.851562 8.039062 -5.007812 8.277344 -6.738281 L 8.519531 -8.519531 L 9.484375 -15.308594 C 9.578125 -15.835938 9.628906 -16.171875 9.628906 -16.316406 C 9.722656 -16.605469 9.867188 -16.800781 9.964844 -16.894531 C 10.058594 -16.992188 10.253906 -17.039062 10.445312 -17.039062 C 10.542969 -17.089844 10.6875 -17.089844 10.878906 -17.089844 C 11.070312 -17.089844 11.261719 -17.089844 11.503906 -17.039062 L 20.3125 -17.039062 L 20.074219 -15.308594 L 19.109375 -8.519531 L 18.867188 -6.738281 L 17.90625 0 C 20.3125 0 21.851562 -0.0976562 22.527344 -0.191406 C 23.34375 -0.386719 23.921875 -0.675781 24.308594 -1.105469 C 24.597656 -1.492188 24.835938 -2.023438 25.03125 -2.792969 C 25.222656 -3.417969 25.414062 -4.71875 25.703125 -6.738281 L 25.945312 -8.519531 L 26.90625 -15.308594 L 27.148438 -17.039062 C 27.4375 -19.15625 27.582031 -20.554688 27.582031 -21.179688 C 27.582031 -22.238281 27.339844 -22.914062 26.859375 -23.25 C 26.472656 -23.539062 25.753906 -23.730469 24.742188 -23.777344 C 24.261719 -23.828125 23.585938 -23.828125 22.71875 -23.828125 L 9.195312 -23.828125 C 7.796875 -23.828125 6.785156 -23.777344 6.160156 -23.683594 C 5.292969 -23.585938 4.621094 -23.25 4.234375 -22.71875 C 3.898438 -22.335938 3.609375 -21.613281 3.417969 -20.648438 C 3.320312 -20.074219 3.128906 -18.867188 2.886719 -17.039062 Z M 2.886719 -17.039062 "/></g></g><g style="fill:rgb(0%,100%,100%);fill-opacity:1;"><g transform="translate(259.904881, 191.252186)"><path style="stroke:none;" d="M 2.359375 -17.089844 C 2.261719 -16.222656 2.117188 -14.679688 1.734375 -12.273438 C 1.394531 -9.914062 1.105469 -8.085938 0.914062 -6.785156 C 0.675781 -5.007812 0.53125 -3.800781 0.480469 -3.175781 L 0.480469 -2.597656 C 0.480469 -1.925781 0.625 -1.394531 0.816406 -1.011719 C 1.105469 -0.625 1.589844 -0.335938 2.359375 -0.191406 C 3.03125 -0.0976562 4.378906 0 6.449219 0 L 17.761719 0 C 19.929688 0 21.324219 -0.0976562 21.996094 -0.191406 C 22.914062 -0.386719 23.539062 -0.722656 23.921875 -1.300781 C 24.210938 -1.734375 24.453125 -2.40625 24.644531 -3.273438 C 24.789062 -3.898438 24.980469 -5.054688 25.222656 -6.785156 L 26.667969 -17.089844 C 26.957031 -18.917969 27.101562 -20.167969 27.101562 -20.746094 L 27.101562 -21.226562 C 27.101562 -21.949219 27.003906 -22.480469 26.761719 -22.816406 C 26.523438 -23.199219 26.089844 -23.488281 25.511719 -23.585938 C 24.835938 -23.777344 23.34375 -23.828125 20.988281 -23.828125 L 9.914062 -23.828125 C 7.992188 -23.828125 6.691406 -23.828125 6.015625 -23.730469 C 5.054688 -23.632812 4.378906 -23.34375 3.945312 -22.863281 C 3.464844 -22.382812 3.082031 -21.421875 2.792969 -19.929688 C 2.695312 -19.445312 2.550781 -18.484375 2.359375 -17.089844 Z M 11.550781 -17.089844 L 19.832031 -17.089844 L 18.628906 -8.519531 C 18.53125 -7.941406 18.484375 -7.605469 18.386719 -7.414062 C 18.386719 -7.21875 18.292969 -7.074219 18.195312 -6.980469 C 18.097656 -6.882812 17.953125 -6.835938 17.761719 -6.785156 L 7.75 -6.785156 L 8.953125 -15.308594 C 9 -15.597656 9.050781 -15.835938 9.050781 -15.933594 C 9.144531 -16.367188 9.242188 -16.65625 9.339844 -16.75 C 9.484375 -16.894531 9.722656 -16.992188 10.011719 -17.039062 C 10.253906 -17.089844 10.78125 -17.089844 11.550781 -17.089844 Z M 11.550781 -17.089844 "/></g></g><g style="fill:rgb(0%,100%,100%);fill-opacity:1;"><g transform="translate(287.43458, 191.252186)"><path style="stroke:none;" d="M 2.886719 -17.089844 L 2.648438 -15.308594 L 1.683594 -8.519531 L 1.445312 -6.785156 L 0.960938 -3.371094 C 0.914062 -2.984375 0.867188 -2.695312 0.816406 -2.503906 C 0.722656 -2.261719 0.625 -2.070312 0.480469 -1.828125 C 0.386719 -1.636719 0.144531 -1.347656 -0.242188 -1.058594 C -0.433594 -0.867188 -0.816406 -0.53125 -1.445312 0 L 0.769531 0 C 2.597656 0 3.800781 -0.046875 4.429688 -0.0976562 C 5.34375 -0.191406 6.015625 -0.433594 6.449219 -0.769531 C 6.929688 -1.105469 7.316406 -1.683594 7.507812 -2.550781 C 7.703125 -3.226562 7.992188 -4.621094 8.277344 -6.785156 L 8.519531 -8.519531 L 9.484375 -15.308594 C 9.578125 -15.789062 9.628906 -16.078125 9.628906 -16.222656 C 9.722656 -16.511719 9.769531 -16.75 9.867188 -16.847656 C 10.011719 -16.992188 10.203125 -17.039062 10.445312 -17.039062 C 10.636719 -17.089844 10.976562 -17.089844 11.503906 -17.089844 L 11.261719 -15.308594 L 10.300781 -8.519531 L 10.058594 -6.785156 L 9.097656 0 C 11.601562 0 13.1875 -0.0976562 13.863281 -0.242188 C 14.535156 -0.433594 15.019531 -0.675781 15.308594 -0.960938 C 15.691406 -1.347656 16.027344 -1.972656 16.222656 -2.792969 C 16.414062 -3.464844 16.605469 -4.765625 16.894531 -6.785156 L 17.136719 -8.519531 L 18.097656 -15.308594 C 18.195312 -15.738281 18.242188 -16.027344 18.242188 -16.171875 C 18.339844 -16.511719 18.386719 -16.703125 18.484375 -16.800781 C 18.628906 -16.945312 18.820312 -17.039062 19.011719 -17.039062 C 19.207031 -17.089844 19.640625 -17.089844 20.3125 -17.089844 L 20.074219 -15.308594 L 19.109375 -8.519531 L 18.867188 -6.785156 L 17.90625 0 C 20.3125 0 21.851562 -0.0976562 22.527344 -0.191406 C 23.34375 -0.386719 23.921875 -0.675781 24.308594 -1.105469 C 24.691406 -1.589844 24.933594 -2.261719 25.125 -3.175781 C 25.269531 -3.800781 25.464844 -5.007812 25.703125 -6.785156 L 25.945312 -8.519531 L 26.90625 -15.308594 L 27.148438 -17.089844 C 27.4375 -19.207031 27.582031 -20.554688 27.582031 -21.179688 C 27.582031 -22.046875 27.4375 -22.671875 27.101562 -23.058594 C 26.8125 -23.394531 26.328125 -23.632812 25.609375 -23.730469 C 25.03125 -23.828125 24.066406 -23.875 22.71875 -23.875 C 22.429688 -23.875 21.949219 -23.875 21.277344 -23.828125 L 10.6875 -23.828125 C 10.011719 -23.875 9.484375 -23.875 9.195312 -23.875 C 7.847656 -23.875 6.882812 -23.828125 6.304688 -23.730469 C 5.488281 -23.632812 4.863281 -23.394531 4.476562 -23.007812 C 4.042969 -22.625 3.707031 -21.902344 3.464844 -20.890625 C 3.371094 -20.265625 3.175781 -19.011719 2.886719 -17.089844 Z M 2.886719 -17.089844 "/></g></g><g style="fill:rgb(0%,100%,100%);fill-opacity:1;"><g transform="translate(315.445572, 191.252186)"><path style="stroke:none;" d="M 12.035156 -33.695312 C 9.820312 -33.695312 8.328125 -33.644531 7.605469 -33.550781 C 6.738281 -33.40625 6.113281 -33.070312 5.679688 -32.585938 C 5.34375 -32.203125 5.054688 -31.480469 4.863281 -30.519531 C 4.71875 -29.941406 4.523438 -28.738281 4.234375 -26.90625 L 4.089844 -25.609375 L 10.925781 -25.609375 Z M 3.851562 -23.875 L 0.960938 -3.515625 C 0.914062 -3.03125 0.867188 -2.742188 0.769531 -2.550781 C 0.722656 -2.308594 0.625 -2.070312 0.433594 -1.828125 C 0.289062 -1.636719 0.046875 -1.394531 -0.335938 -1.011719 C -0.53125 -0.816406 -0.867188 -0.480469 -1.445312 0 L 0.816406 0 C 2.550781 0 3.753906 -0.046875 4.378906 -0.0976562 C 5.4375 -0.191406 6.210938 -0.480469 6.691406 -0.914062 C 7.125 -1.347656 7.460938 -2.070312 7.652344 -3.082031 C 7.847656 -3.707031 8.039062 -4.910156 8.277344 -6.738281 L 10.6875 -23.875 Z M 3.851562 -23.875 "/></g></g><g style="fill:rgb(0%,100%,100%);fill-opacity:1;"><g transform="translate(326.515213, 191.252186)"><path style="stroke:none;" d="M 9.53125 -23.828125 C 7.796875 -23.828125 6.59375 -23.777344 5.921875 -23.683594 C 5.054688 -23.585938 4.429688 -23.34375 3.996094 -22.960938 C 3.5625 -22.574219 3.226562 -21.851562 2.984375 -20.84375 C 2.886719 -20.214844 2.695312 -18.964844 2.40625 -17.039062 C 2.261719 -15.882812 2.023438 -14.199219 1.683594 -11.890625 C 1.394531 -9.578125 1.15625 -7.894531 0.960938 -6.738281 C 0.675781 -4.863281 0.53125 -3.609375 0.480469 -2.9375 L 0.480469 -2.597656 C 0.480469 -1.925781 0.625 -1.394531 0.816406 -1.011719 C 1.105469 -0.625 1.589844 -0.335938 2.261719 -0.191406 C 2.9375 -0.0976562 4.429688 0 6.738281 0 L 17.519531 0 C 19.496094 0 20.792969 -0.046875 21.421875 -0.0976562 C 22.382812 -0.191406 23.105469 -0.433594 23.539062 -0.769531 C 24.019531 -1.15625 24.355469 -1.828125 24.550781 -2.695312 C 24.742188 -3.371094 24.933594 -4.71875 25.222656 -6.738281 L 7.796875 -6.738281 L 9 -15.308594 C 9.097656 -15.789062 9.144531 -16.078125 9.144531 -16.269531 C 9.242188 -16.558594 9.339844 -16.75 9.433594 -16.847656 C 9.53125 -16.945312 9.675781 -16.992188 9.867188 -16.992188 C 9.964844 -17.039062 10.203125 -17.089844 10.492188 -17.089844 C 10.6875 -17.089844 10.925781 -17.039062 11.214844 -17.039062 L 19.832031 -17.039062 C 21.660156 -17.089844 22.863281 -17.136719 23.488281 -17.136719 C 24.644531 -17.230469 25.511719 -17.519531 25.992188 -17.953125 C 26.425781 -18.339844 26.761719 -19.011719 26.957031 -19.929688 C 27.148438 -20.601562 27.339844 -21.902344 27.628906 -23.828125 Z M 9.53125 -23.828125 "/></g></g><g style="fill:rgb(100%,74.119568%,34.899902%);fill-opacity:1;"><g transform="translate(19.93474, 191.252186)"><path style="stroke:none;" d="M 22.191406 -33.695312 C 19.878906 -33.695312 18.339844 -33.644531 17.617188 -33.503906 C 16.945312 -33.40625 16.367188 -33.164062 15.980469 -32.78125 C 15.597656 -32.394531 15.257812 -31.671875 15.019531 -30.660156 C 14.921875 -30.085938 14.679688 -28.832031 14.390625 -26.957031 L 14.246094 -25.65625 L 21.082031 -25.65625 L 21.226562 -26.957031 Z M 13.960938 -23.875 L 11.839844 -8.519531 C 11.792969 -8.039062 11.746094 -7.75 11.648438 -7.558594 C 11.648438 -7.363281 11.550781 -7.171875 11.457031 -7.074219 C 11.359375 -6.980469 11.214844 -6.882812 10.976562 -6.835938 C 10.832031 -6.835938 10.492188 -6.785156 9.914062 -6.785156 L 4.285156 -6.785156 C 3.945312 -6.785156 3.707031 -6.835938 3.515625 -6.835938 C 3.320312 -6.882812 3.128906 -6.929688 2.9375 -7.027344 C 2.742188 -7.171875 2.550781 -7.363281 2.308594 -7.558594 C 2.117188 -7.75 1.78125 -8.136719 1.25 -8.617188 L 0.914062 -6.402344 C 0.722656 -5.054688 0.578125 -4.042969 0.53125 -3.417969 C 0.53125 -3.128906 0.480469 -2.839844 0.480469 -2.597656 C 0.480469 -2.023438 0.578125 -1.539062 0.769531 -1.15625 C 1.058594 -0.625 1.683594 -0.289062 2.695312 -0.144531 C 3.371094 -0.046875 4.523438 0 6.257812 0 L 11.261719 0 C 12.996094 0 14.152344 -0.046875 14.824219 -0.144531 C 15.980469 -0.289062 16.75 -0.675781 17.136719 -1.300781 C 17.472656 -1.78125 17.714844 -2.503906 17.90625 -3.5625 C 18.050781 -4.140625 18.242188 -5.246094 18.4375 -6.785156 L 20.792969 -23.875 Z M 13.960938 -23.875 "/></g></g><g style="fill:rgb(100%,74.119568%,34.899902%);fill-opacity:1;"><g transform="translate(41.159557, 191.252186)"><path style="stroke:none;" d="M 21.949219 -23.875 L 3.320312 -23.875 L 3.320312 -23.058594 C 3.320312 -21.804688 3.371094 -20.84375 3.371094 -20.265625 C 3.464844 -19.207031 3.660156 -18.484375 3.945312 -18.050781 C 4.285156 -17.617188 4.863281 -17.328125 5.726562 -17.183594 C 6.304688 -17.136719 7.507812 -17.089844 9.242188 -17.089844 L 19.832031 -17.089844 C 19.785156 -16.558594 19.734375 -16.222656 19.6875 -16.027344 C 19.6875 -15.835938 19.640625 -15.691406 19.542969 -15.597656 C 19.445312 -15.5 19.300781 -15.402344 19.109375 -15.355469 C 19.011719 -15.355469 18.722656 -15.308594 18.339844 -15.308594 L 8.277344 -15.308594 C 6.5 -15.308594 5.246094 -15.257812 4.574219 -15.164062 C 3.753906 -15.066406 3.128906 -14.777344 2.695312 -14.34375 C 2.308594 -13.960938 1.972656 -13.1875 1.734375 -12.035156 C 1.636719 -11.457031 1.445312 -10.300781 1.203125 -8.566406 L 0.914062 -6.785156 C 0.675781 -4.863281 0.53125 -3.5625 0.480469 -2.886719 L 0.480469 -2.597656 C 0.480469 -1.828125 0.578125 -1.300781 0.867188 -0.914062 C 1.15625 -0.578125 1.636719 -0.335938 2.308594 -0.191406 C 2.984375 -0.0976562 4.476562 0 6.785156 0 L 17.230469 0 C 19.640625 0 21.179688 -0.0976562 21.851562 -0.191406 C 22.527344 -0.335938 23.058594 -0.53125 23.441406 -0.816406 C 23.875 -1.15625 24.210938 -1.683594 24.40625 -2.359375 C 24.644531 -3.03125 24.933594 -4.476562 25.222656 -6.785156 L 25.898438 -11.695312 L 26.667969 -17.089844 C 26.90625 -18.820312 27.050781 -19.976562 27.050781 -20.554688 C 27.101562 -20.84375 27.101562 -21.035156 27.101562 -21.226562 C 27.101562 -22.238281 26.859375 -22.914062 26.378906 -23.25 C 26.089844 -23.488281 25.609375 -23.632812 24.933594 -23.730469 C 24.355469 -23.828125 23.34375 -23.875 21.949219 -23.875 Z M 9.144531 -8.566406 L 18.628906 -8.566406 C 18.582031 -8.039062 18.53125 -7.703125 18.484375 -7.507812 C 18.4375 -7.316406 18.386719 -7.125 18.292969 -7.027344 C 18.242188 -6.929688 18.148438 -6.882812 17.953125 -6.835938 C 17.859375 -6.835938 17.570312 -6.785156 17.183594 -6.785156 L 7.75 -6.785156 C 7.847656 -7.171875 7.894531 -7.460938 7.894531 -7.605469 C 7.941406 -7.992188 7.992188 -8.230469 8.085938 -8.328125 C 8.183594 -8.421875 8.277344 -8.519531 8.421875 -8.519531 C 8.519531 -8.566406 8.761719 -8.566406 9.144531 -8.566406 Z M 9.144531 -8.566406 "/></g></g><g style="fill:rgb(100%,74.119568%,34.899902%);fill-opacity:1;"><g transform="translate(68.689257, 191.252186)"><path style="stroke:none;" d="M 1.347656 -23.921875 C 1.828125 -23.441406 2.117188 -23.105469 2.261719 -22.914062 C 2.550781 -22.625 2.695312 -22.335938 2.792969 -22.09375 C 2.886719 -21.902344 2.886719 -21.707031 2.886719 -21.421875 C 2.886719 -21.226562 2.886719 -20.890625 2.792969 -20.410156 L 2.308594 -17.136719 L 0.867188 -6.785156 C 0.722656 -5.632812 0.625 -4.765625 0.578125 -4.285156 C 0.480469 -3.609375 0.433594 -3.082031 0.433594 -2.648438 C 0.433594 -2.023438 0.53125 -1.539062 0.722656 -1.203125 C 1.011719 -0.675781 1.589844 -0.335938 2.550781 -0.144531 C 3.226562 -0.046875 4.476562 0 6.304688 0 L 17.375 0 C 17.28125 0.867188 17.183594 1.492188 17.089844 1.78125 C 17.039062 2.167969 16.894531 2.453125 16.703125 2.648438 C 16.558594 2.839844 16.269531 2.9375 15.882812 3.03125 C 15.644531 3.03125 15.113281 3.082031 14.246094 3.082031 L 5.921875 3.082031 C 4.476562 3.082031 3.417969 3.082031 2.839844 3.175781 C 2.023438 3.226562 1.394531 3.417969 0.914062 3.707031 C 0.335938 4.042969 -0.144531 4.765625 -0.53125 5.921875 C -0.722656 6.546875 -1.011719 7.847656 -1.445312 9.867188 L 15.980469 9.867188 C 18.582031 9.867188 20.214844 9.769531 20.890625 9.578125 C 21.566406 9.386719 22.046875 9.144531 22.335938 8.761719 C 22.71875 8.277344 23.058594 7.558594 23.25 6.59375 C 23.394531 5.96875 23.585938 4.8125 23.777344 3.082031 L 24.210938 0 L 25.175781 -6.785156 L 26.617188 -17.136719 C 26.90625 -19.253906 27.050781 -20.648438 27.050781 -21.277344 C 27.050781 -21.46875 27.050781 -21.660156 27.003906 -21.757812 C 27.003906 -22.527344 26.761719 -23.058594 26.28125 -23.34375 C 25.898438 -23.632812 25.175781 -23.828125 24.164062 -23.875 C 23.585938 -23.921875 22.480469 -23.921875 20.746094 -23.921875 L 19.785156 -17.136719 L 18.582031 -8.519531 C 18.484375 -8.136719 18.4375 -7.847656 18.386719 -7.652344 C 18.339844 -7.414062 18.242188 -7.21875 18.148438 -7.074219 C 18.050781 -6.980469 17.953125 -6.929688 17.761719 -6.882812 C 17.617188 -6.835938 17.183594 -6.785156 16.511719 -6.785156 L 7.75 -6.785156 L 9.195312 -17.136719 C 9.484375 -19.398438 9.675781 -20.746094 9.675781 -21.132812 L 9.675781 -21.707031 C 9.675781 -22.382812 9.578125 -22.914062 9.289062 -23.199219 C 9.050781 -23.488281 8.617188 -23.683594 7.992188 -23.777344 C 7.507812 -23.875 6.691406 -23.921875 5.488281 -23.921875 Z M 1.347656 -23.921875 "/></g></g><g style="fill:rgb(100%,74.119568%,34.899902%);fill-opacity:1;"><g transform="translate(96.170822, 191.252186)"><path style="stroke:none;" d="M 21.949219 -23.875 L 3.320312 -23.875 L 3.320312 -23.058594 C 3.320312 -21.804688 3.371094 -20.84375 3.371094 -20.265625 C 3.464844 -19.207031 3.660156 -18.484375 3.945312 -18.050781 C 4.285156 -17.617188 4.863281 -17.328125 5.726562 -17.183594 C 6.304688 -17.136719 7.507812 -17.089844 9.242188 -17.089844 L 19.832031 -17.089844 C 19.785156 -16.558594 19.734375 -16.222656 19.6875 -16.027344 C 19.6875 -15.835938 19.640625 -15.691406 19.542969 -15.597656 C 19.445312 -15.5 19.300781 -15.402344 19.109375 -15.355469 C 19.011719 -15.355469 18.722656 -15.308594 18.339844 -15.308594 L 8.277344 -15.308594 C 6.5 -15.308594 5.246094 -15.257812 4.574219 -15.164062 C 3.753906 -15.066406 3.128906 -14.777344 2.695312 -14.34375 C 2.308594 -13.960938 1.972656 -13.1875 1.734375 -12.035156 C 1.636719 -11.457031 1.445312 -10.300781 1.203125 -8.566406 L 0.914062 -6.785156 C 0.675781 -4.863281 0.53125 -3.5625 0.480469 -2.886719 L 0.480469 -2.597656 C 0.480469 -1.828125 0.578125 -1.300781 0.867188 -0.914062 C 1.15625 -0.578125 1.636719 -0.335938 2.308594 -0.191406 C 2.984375 -0.0976562 4.476562 0 6.785156 0 L 17.230469 0 C 19.640625 0 21.179688 -0.0976562 21.851562 -0.191406 C 22.527344 -0.335938 23.058594 -0.53125 23.441406 -0.816406 C 23.875 -1.15625 24.210938 -1.683594 24.40625 -2.359375 C 24.644531 -3.03125 24.933594 -4.476562 25.222656 -6.785156 L 25.898438 -11.695312 L 26.667969 -17.089844 C 26.90625 -18.820312 27.050781 -19.976562 27.050781 -20.554688 C 27.101562 -20.84375 27.101562 -21.035156 27.101562 -21.226562 C 27.101562 -22.238281 26.859375 -22.914062 26.378906 -23.25 C 26.089844 -23.488281 25.609375 -23.632812 24.933594 -23.730469 C 24.355469 -23.828125 23.34375 -23.875 21.949219 -23.875 Z M 9.144531 -8.566406 L 18.628906 -8.566406 C 18.582031 -8.039062 18.53125 -7.703125 18.484375 -7.507812 C 18.4375 -7.316406 18.386719 -7.125 18.292969 -7.027344 C 18.242188 -6.929688 18.148438 -6.882812 17.953125 -6.835938 C 17.859375 -6.835938 17.570312 -6.785156 17.183594 -6.785156 L 7.75 -6.785156 C 7.847656 -7.171875 7.894531 -7.460938 7.894531 -7.605469 C 7.941406 -7.992188 7.992188 -8.230469 8.085938 -8.328125 C 8.183594 -8.421875 8.277344 -8.519531 8.421875 -8.519531 C 8.519531 -8.566406 8.761719 -8.566406 9.144531 -8.566406 Z M 9.144531 -8.566406 "/></g></g><g style="fill:rgb(100%,74.119568%,34.899902%);fill-opacity:1;"><g transform="translate(123.700522, 191.252186)"><path style="stroke:none;" d="M 2.359375 -17.089844 L 2.117188 -15.355469 C 1.828125 -13.429688 1.636719 -12.179688 1.539062 -11.550781 L 1.539062 -10.976562 C 1.539062 -10.203125 1.734375 -9.675781 2.023438 -9.339844 C 2.40625 -9 3.03125 -8.761719 3.996094 -8.664062 C 4.574219 -8.617188 5.535156 -8.566406 6.835938 -8.566406 L 18.628906 -8.566406 C 18.582031 -8.136719 18.53125 -7.847656 18.484375 -7.652344 C 18.484375 -7.414062 18.386719 -7.21875 18.292969 -7.074219 C 18.195312 -6.980469 18.050781 -6.882812 17.859375 -6.835938 C 17.714844 -6.835938 17.328125 -6.785156 16.75 -6.785156 L 0.914062 -6.785156 C 0.625 -4.667969 0.480469 -3.320312 0.480469 -2.648438 C 0.480469 -1.925781 0.578125 -1.394531 0.816406 -1.011719 C 1.105469 -0.675781 1.539062 -0.433594 2.117188 -0.242188 C 2.792969 -0.144531 4.332031 -0.046875 6.835938 -0.046875 L 17.425781 -0.046875 C 19.878906 -0.046875 21.46875 -0.144531 22.140625 -0.242188 C 22.863281 -0.433594 23.394531 -0.722656 23.777344 -1.105469 C 24.066406 -1.492188 24.261719 -1.972656 24.453125 -2.597656 C 24.644531 -3.273438 24.933594 -4.667969 25.222656 -6.785156 L 25.464844 -8.566406 C 25.703125 -10.492188 25.847656 -11.746094 25.847656 -12.324219 L 25.847656 -12.613281 C 25.847656 -13.476562 25.703125 -14.105469 25.367188 -14.488281 C 25.03125 -14.875 24.355469 -15.164062 23.296875 -15.257812 C 22.71875 -15.355469 21.46875 -15.355469 19.542969 -15.355469 L 8.953125 -15.355469 C 9.050781 -15.882812 9.097656 -16.222656 9.097656 -16.367188 C 9.144531 -16.558594 9.195312 -16.703125 9.289062 -16.800781 C 9.386719 -16.945312 9.578125 -17.039062 9.769531 -17.039062 C 9.964844 -17.089844 10.445312 -17.089844 11.121094 -17.089844 L 20.554688 -17.089844 C 22.09375 -17.089844 23.199219 -17.136719 23.777344 -17.230469 C 24.453125 -17.328125 24.933594 -17.425781 25.320312 -17.617188 C 25.992188 -17.953125 26.472656 -18.582031 26.761719 -19.496094 C 27.003906 -20.167969 27.292969 -21.660156 27.582031 -23.875 L 9.722656 -23.875 C 7.992188 -23.875 6.785156 -23.875 6.113281 -23.777344 C 5.246094 -23.683594 4.621094 -23.488281 4.1875 -23.152344 C 3.707031 -22.769531 3.320312 -22.140625 3.082031 -21.179688 C 2.886719 -20.503906 2.648438 -19.15625 2.359375 -17.089844 Z M 2.359375 -17.089844 "/></g></g><g style="fill:rgb(100%,74.119568%,34.899902%);fill-opacity:1;"><g transform="translate(151.037708, 191.252186)"><path style="stroke:none;" d="M 9.144531 -33.742188 C 9.628906 -33.359375 9.964844 -33.117188 10.109375 -32.925781 C 10.398438 -32.730469 10.542969 -32.492188 10.636719 -32.296875 C 10.734375 -32.152344 10.734375 -31.960938 10.734375 -31.722656 C 10.734375 -31.578125 10.734375 -31.289062 10.6875 -30.804688 L 9.722656 -23.875 L 8.710938 -23.875 C 7.316406 -23.875 6.304688 -23.875 5.679688 -23.777344 C 4.863281 -23.683594 4.234375 -23.488281 3.753906 -23.199219 C 3.226562 -22.816406 2.792969 -22.046875 2.503906 -20.84375 C 2.40625 -20.265625 2.214844 -19.011719 1.925781 -17.136719 L 8.761719 -17.136719 L 8.519531 -15.355469 L 7.558594 -8.566406 L 7.316406 -6.835938 C 7.027344 -5.054688 6.835938 -3.851562 6.738281 -3.226562 L 6.738281 -2.453125 C 6.738281 -1.878906 6.835938 -1.394531 7.027344 -1.058594 C 7.316406 -0.625 7.894531 -0.335938 8.761719 -0.191406 C 9.433594 -0.0976562 10.832031 -0.046875 12.898438 -0.046875 L 17.230469 -0.046875 C 19.253906 -0.046875 20.601562 -0.0976562 21.277344 -0.191406 C 22.140625 -0.335938 22.769531 -0.578125 23.152344 -0.960938 C 23.539062 -1.347656 23.875 -1.972656 24.066406 -2.792969 C 24.261719 -3.464844 24.453125 -4.8125 24.742188 -6.835938 L 14.152344 -6.835938 L 14.390625 -8.566406 L 15.355469 -15.355469 L 15.597656 -17.136719 L 19.351562 -17.136719 C 21.46875 -17.136719 22.816406 -17.183594 23.488281 -17.230469 C 24.261719 -17.328125 24.789062 -17.519531 25.175781 -17.761719 C 25.753906 -18.148438 26.183594 -18.773438 26.425781 -19.734375 C 26.617188 -20.410156 26.859375 -21.757812 27.148438 -23.875 L 16.558594 -23.875 L 16.992188 -27.003906 C 17.28125 -29.121094 17.375 -30.46875 17.375 -31.09375 C 17.375 -31.960938 17.230469 -32.539062 16.945312 -32.925781 C 16.65625 -33.261719 16.078125 -33.503906 15.308594 -33.597656 C 14.921875 -33.695312 14.34375 -33.742188 13.574219 -33.742188 Z M 9.144531 -33.742188 "/></g></g><g style="fill:rgb(100%,74.119568%,34.899902%);fill-opacity:1;"><g transform="translate(177.941725, 191.252186)"><path style="stroke:none;" d="M 2.695312 -17.089844 L 0.867188 -4.042969 C 0.816406 -3.515625 0.769531 -3.175781 0.722656 -2.984375 C 0.675781 -2.742188 0.625 -2.503906 0.53125 -2.308594 C 0.433594 -2.023438 0.191406 -1.734375 -0.191406 -1.347656 C -0.386719 -1.105469 -0.769531 -0.675781 -1.445312 0 L 0.578125 0 C 1.636719 0 2.359375 -0.046875 2.792969 -0.046875 C 3.800781 -0.0976562 4.574219 -0.144531 5.054688 -0.242188 C 5.824219 -0.433594 6.355469 -0.722656 6.738281 -1.15625 C 7.027344 -1.539062 7.269531 -2.117188 7.460938 -2.886719 C 7.652344 -3.5625 7.847656 -4.863281 8.085938 -6.785156 L 9.242188 -15.113281 C 9.339844 -15.738281 9.433594 -16.125 9.484375 -16.269531 C 9.578125 -16.558594 9.675781 -16.75 9.769531 -16.847656 C 9.914062 -16.945312 10.15625 -17.039062 10.445312 -17.039062 C 10.6875 -17.089844 11.167969 -17.089844 11.890625 -17.089844 L 20.074219 -17.089844 C 22.09375 -17.089844 23.394531 -17.136719 24.019531 -17.183594 C 25.03125 -17.328125 25.753906 -17.519531 26.183594 -17.90625 C 26.667969 -18.292969 27.003906 -18.964844 27.246094 -19.878906 C 27.4375 -20.554688 27.628906 -21.851562 27.917969 -23.875 L 9.433594 -23.875 C 7.75 -23.875 6.59375 -23.828125 5.921875 -23.683594 C 5.199219 -23.585938 4.667969 -23.34375 4.285156 -22.960938 C 3.851562 -22.574219 3.515625 -21.804688 3.273438 -20.746094 C 3.175781 -20.167969 2.984375 -18.917969 2.695312 -17.089844 Z M 2.695312 -17.089844 "/></g></g><g style="fill:rgb(100%,74.119568%,34.899902%);fill-opacity:1;"><g transform="translate(205.567681, 191.252186)"><path style="stroke:none;" d="M 2.359375 -17.089844 C 2.261719 -16.222656 2.117188 -14.679688 1.734375 -12.273438 C 1.394531 -9.914062 1.105469 -8.085938 0.914062 -6.785156 C 0.675781 -5.007812 0.53125 -3.800781 0.480469 -3.175781 L 0.480469 -2.597656 C 0.480469 -1.925781 0.625 -1.394531 0.816406 -1.011719 C 1.105469 -0.625 1.589844 -0.335938 2.359375 -0.191406 C 3.03125 -0.0976562 4.378906 0 6.449219 0 L 17.761719 0 C 19.929688 0 21.324219 -0.0976562 21.996094 -0.191406 C 22.914062 -0.386719 23.539062 -0.722656 23.921875 -1.300781 C 24.210938 -1.734375 24.453125 -2.40625 24.644531 -3.273438 C 24.789062 -3.898438 24.980469 -5.054688 25.222656 -6.785156 L 26.667969 -17.089844 C 26.957031 -18.917969 27.101562 -20.167969 27.101562 -20.746094 L 27.101562 -21.226562 C 27.101562 -21.949219 27.003906 -22.480469 26.761719 -22.816406 C 26.523438 -23.199219 26.089844 -23.488281 25.511719 -23.585938 C 24.835938 -23.777344 23.34375 -23.828125 20.988281 -23.828125 L 9.914062 -23.828125 C 7.992188 -23.828125 6.691406 -23.828125 6.015625 -23.730469 C 5.054688 -23.632812 4.378906 -23.34375 3.945312 -22.863281 C 3.464844 -22.382812 3.082031 -21.421875 2.792969 -19.929688 C 2.695312 -19.445312 2.550781 -18.484375 2.359375 -17.089844 Z M 11.550781 -17.089844 L 19.832031 -17.089844 L 18.628906 -8.519531 C 18.53125 -7.941406 18.484375 -7.605469 18.386719 -7.414062 C 18.386719 -7.21875 18.292969 -7.074219 18.195312 -6.980469 C 18.097656 -6.882812 17.953125 -6.835938 17.761719 -6.785156 L 7.75 -6.785156 L 8.953125 -15.308594 C 9 -15.597656 9.050781 -15.835938 9.050781 -15.933594 C 9.144531 -16.367188 9.242188 -16.65625 9.339844 -16.75 C 9.484375 -16.894531 9.722656 -16.992188 10.011719 -17.039062 C 10.253906 -17.089844 10.78125 -17.089844 11.550781 -17.089844 Z M 11.550781 -17.089844 "/></g></g><g style="fill:rgb(100%,74.119568%,34.899902%);fill-opacity:1;"><g transform="translate(233.097369, 191.252186)"><path style="stroke:none;" d="M 2.886719 -17.039062 L 2.648438 -15.308594 L 1.683594 -8.519531 L 1.445312 -6.738281 L 0.960938 -3.371094 C 0.914062 -2.886719 0.867188 -2.550781 0.769531 -2.359375 C 0.722656 -2.167969 0.625 -2.023438 0.53125 -1.828125 C 0.386719 -1.636719 0.144531 -1.394531 -0.242188 -1.058594 C -0.433594 -0.867188 -0.816406 -0.53125 -1.445312 0 L 0.769531 0 C 2.648438 0 3.898438 -0.046875 4.574219 -0.0976562 C 5.632812 -0.242188 6.355469 -0.53125 6.785156 -1.011719 C 7.171875 -1.492188 7.507812 -2.214844 7.703125 -3.226562 C 7.847656 -3.851562 8.039062 -5.007812 8.277344 -6.738281 L 8.519531 -8.519531 L 9.484375 -15.308594 C 9.578125 -15.835938 9.628906 -16.171875 9.628906 -16.316406 C 9.722656 -16.605469 9.867188 -16.800781 9.964844 -16.894531 C 10.058594 -16.992188 10.253906 -17.039062 10.445312 -17.039062 C 10.542969 -17.089844 10.6875 -17.089844 10.878906 -17.089844 C 11.070312 -17.089844 11.261719 -17.089844 11.503906 -17.039062 L 20.3125 -17.039062 L 20.074219 -15.308594 L 19.109375 -8.519531 L 18.867188 -6.738281 L 17.90625 0 C 20.3125 0 21.851562 -0.0976562 22.527344 -0.191406 C 23.34375 -0.386719 23.921875 -0.675781 24.308594 -1.105469 C 24.597656 -1.492188 24.835938 -2.023438 25.03125 -2.792969 C 25.222656 -3.417969 25.414062 -4.71875 25.703125 -6.738281 L 25.945312 -8.519531 L 26.90625 -15.308594 L 27.148438 -17.039062 C 27.4375 -19.15625 27.582031 -20.554688 27.582031 -21.179688 C 27.582031 -22.238281 27.339844 -22.914062 26.859375 -23.25 C 26.472656 -23.539062 25.753906 -23.730469 24.742188 -23.777344 C 24.261719 -23.828125 23.585938 -23.828125 22.71875 -23.828125 L 9.195312 -23.828125 C 7.796875 -23.828125 6.785156 -23.777344 6.160156 -23.683594 C 5.292969 -23.585938 4.621094 -23.25 4.234375 -22.71875 C 3.898438 -22.335938 3.609375 -21.613281 3.417969 -20.648438 C 3.320312 -20.074219 3.128906 -18.867188 2.886719 -17.039062 Z M 2.886719 -17.039062 "/></g></g><g style="fill:rgb(100%,74.119568%,34.899902%);fill-opacity:1;"><g transform="translate(261.108338, 191.252186)"><path style="stroke:none;" d="M 2.359375 -17.089844 C 2.261719 -16.222656 2.117188 -14.679688 1.734375 -12.273438 C 1.394531 -9.914062 1.105469 -8.085938 0.914062 -6.785156 C 0.675781 -5.007812 0.53125 -3.800781 0.480469 -3.175781 L 0.480469 -2.597656 C 0.480469 -1.925781 0.625 -1.394531 0.816406 -1.011719 C 1.105469 -0.625 1.589844 -0.335938 2.359375 -0.191406 C 3.03125 -0.0976562 4.378906 0 6.449219 0 L 17.761719 0 C 19.929688 0 21.324219 -0.0976562 21.996094 -0.191406 C 22.914062 -0.386719 23.539062 -0.722656 23.921875 -1.300781 C 24.210938 -1.734375 24.453125 -2.40625 24.644531 -3.273438 C 24.789062 -3.898438 24.980469 -5.054688 25.222656 -6.785156 L 26.667969 -17.089844 C 26.957031 -18.917969 27.101562 -20.167969 27.101562 -20.746094 L 27.101562 -21.226562 C 27.101562 -21.949219 27.003906 -22.480469 26.761719 -22.816406 C 26.523438 -23.199219 26.089844 -23.488281 25.511719 -23.585938 C 24.835938 -23.777344 23.34375 -23.828125 20.988281 -23.828125 L 9.914062 -23.828125 C 7.992188 -23.828125 6.691406 -23.828125 6.015625 -23.730469 C 5.054688 -23.632812 4.378906 -23.34375 3.945312 -22.863281 C 3.464844 -22.382812 3.082031 -21.421875 2.792969 -19.929688 C 2.695312 -19.445312 2.550781 -18.484375 2.359375 -17.089844 Z M 11.550781 -17.089844 L 19.832031 -17.089844 L 18.628906 -8.519531 C 18.53125 -7.941406 18.484375 -7.605469 18.386719 -7.414062 C 18.386719 -7.21875 18.292969 -7.074219 18.195312 -6.980469 C 18.097656 -6.882812 17.953125 -6.835938 17.761719 -6.785156 L 7.75 -6.785156 L 8.953125 -15.308594 C 9 -15.597656 9.050781 -15.835938 9.050781 -15.933594 C 9.144531 -16.367188 9.242188 -16.65625 9.339844 -16.75 C 9.484375 -16.894531 9.722656 -16.992188 10.011719 -17.039062 C 10.253906 -17.089844 10.78125 -17.089844 11.550781 -17.089844 Z M 11.550781 -17.089844 "/></g></g><g style="fill:rgb(100%,74.119568%,34.899902%);fill-opacity:1;"><g transform="translate(288.638037, 191.252186)"><path style="stroke:none;" d="M 2.886719 -17.089844 L 2.648438 -15.308594 L 1.683594 -8.519531 L 1.445312 -6.785156 L 0.960938 -3.371094 C 0.914062 -2.984375 0.867188 -2.695312 0.816406 -2.503906 C 0.722656 -2.261719 0.625 -2.070312 0.480469 -1.828125 C 0.386719 -1.636719 0.144531 -1.347656 -0.242188 -1.058594 C -0.433594 -0.867188 -0.816406 -0.53125 -1.445312 0 L 0.769531 0 C 2.597656 0 3.800781 -0.046875 4.429688 -0.0976562 C 5.34375 -0.191406 6.015625 -0.433594 6.449219 -0.769531 C 6.929688 -1.105469 7.316406 -1.683594 7.507812 -2.550781 C 7.703125 -3.226562 7.992188 -4.621094 8.277344 -6.785156 L 8.519531 -8.519531 L 9.484375 -15.308594 C 9.578125 -15.789062 9.628906 -16.078125 9.628906 -16.222656 C 9.722656 -16.511719 9.769531 -16.75 9.867188 -16.847656 C 10.011719 -16.992188 10.203125 -17.039062 10.445312 -17.039062 C 10.636719 -17.089844 10.976562 -17.089844 11.503906 -17.089844 L 11.261719 -15.308594 L 10.300781 -8.519531 L 10.058594 -6.785156 L 9.097656 0 C 11.601562 0 13.1875 -0.0976562 13.863281 -0.242188 C 14.535156 -0.433594 15.019531 -0.675781 15.308594 -0.960938 C 15.691406 -1.347656 16.027344 -1.972656 16.222656 -2.792969 C 16.414062 -3.464844 16.605469 -4.765625 16.894531 -6.785156 L 17.136719 -8.519531 L 18.097656 -15.308594 C 18.195312 -15.738281 18.242188 -16.027344 18.242188 -16.171875 C 18.339844 -16.511719 18.386719 -16.703125 18.484375 -16.800781 C 18.628906 -16.945312 18.820312 -17.039062 19.011719 -17.039062 C 19.207031 -17.089844 19.640625 -17.089844 20.3125 -17.089844 L 20.074219 -15.308594 L 19.109375 -8.519531 L 18.867188 -6.785156 L 17.90625 0 C 20.3125 0 21.851562 -0.0976562 22.527344 -0.191406 C 23.34375 -0.386719 23.921875 -0.675781 24.308594 -1.105469 C 24.691406 -1.589844 24.933594 -2.261719 25.125 -3.175781 C 25.269531 -3.800781 25.464844 -5.007812 25.703125 -6.785156 L 25.945312 -8.519531 L 26.90625 -15.308594 L 27.148438 -17.089844 C 27.4375 -19.207031 27.582031 -20.554688 27.582031 -21.179688 C 27.582031 -22.046875 27.4375 -22.671875 27.101562 -23.058594 C 26.8125 -23.394531 26.328125 -23.632812 25.609375 -23.730469 C 25.03125 -23.828125 24.066406 -23.875 22.71875 -23.875 C 22.429688 -23.875 21.949219 -23.875 21.277344 -23.828125 L 10.6875 -23.828125 C 10.011719 -23.875 9.484375 -23.875 9.195312 -23.875 C 7.847656 -23.875 6.882812 -23.828125 6.304688 -23.730469 C 5.488281 -23.632812 4.863281 -23.394531 4.476562 -23.007812 C 4.042969 -22.625 3.707031 -21.902344 3.464844 -20.890625 C 3.371094 -20.265625 3.175781 -19.011719 2.886719 -17.089844 Z M 2.886719 -17.089844 "/></g></g><g style="fill:rgb(100%,74.119568%,34.899902%);fill-opacity:1;"><g transform="translate(316.649029, 191.252186)"><path style="stroke:none;" d="M 12.035156 -33.695312 C 9.820312 -33.695312 8.328125 -33.644531 7.605469 -33.550781 C 6.738281 -33.40625 6.113281 -33.070312 5.679688 -32.585938 C 5.34375 -32.203125 5.054688 -31.480469 4.863281 -30.519531 C 4.71875 -29.941406 4.523438 -28.738281 4.234375 -26.90625 L 4.089844 -25.609375 L 10.925781 -25.609375 Z M 3.851562 -23.875 L 0.960938 -3.515625 C 0.914062 -3.03125 0.867188 -2.742188 0.769531 -2.550781 C 0.722656 -2.308594 0.625 -2.070312 0.433594 -1.828125 C 0.289062 -1.636719 0.046875 -1.394531 -0.335938 -1.011719 C -0.53125 -0.816406 -0.867188 -0.480469 -1.445312 0 L 0.816406 0 C 2.550781 0 3.753906 -0.046875 4.378906 -0.0976562 C 5.4375 -0.191406 6.210938 -0.480469 6.691406 -0.914062 C 7.125 -1.347656 7.460938 -2.070312 7.652344 -3.082031 C 7.847656 -3.707031 8.039062 -4.910156 8.277344 -6.738281 L 10.6875 -23.875 Z M 3.851562 -23.875 "/></g></g><g style="fill:rgb(100%,74.119568%,34.899902%);fill-opacity:1;"><g transform="translate(327.71867, 191.252186)"><path style="stroke:none;" d="M 9.53125 -23.828125 C 7.796875 -23.828125 6.59375 -23.777344 5.921875 -23.683594 C 5.054688 -23.585938 4.429688 -23.34375 3.996094 -22.960938 C 3.5625 -22.574219 3.226562 -21.851562 2.984375 -20.84375 C 2.886719 -20.214844 2.695312 -18.964844 2.40625 -17.039062 C 2.261719 -15.882812 2.023438 -14.199219 1.683594 -11.890625 C 1.394531 -9.578125 1.15625 -7.894531 0.960938 -6.738281 C 0.675781 -4.863281 0.53125 -3.609375 0.480469 -2.9375 L 0.480469 -2.597656 C 0.480469 -1.925781 0.625 -1.394531 0.816406 -1.011719 C 1.105469 -0.625 1.589844 -0.335938 2.261719 -0.191406 C 2.9375 -0.0976562 4.429688 0 6.738281 0 L 17.519531 0 C 19.496094 0 20.792969 -0.046875 21.421875 -0.0976562 C 22.382812 -0.191406 23.105469 -0.433594 23.539062 -0.769531 C 24.019531 -1.15625 24.355469 -1.828125 24.550781 -2.695312 C 24.742188 -3.371094 24.933594 -4.71875 25.222656 -6.738281 L 7.796875 -6.738281 L 9 -15.308594 C 9.097656 -15.789062 9.144531 -16.078125 9.144531 -16.269531 C 9.242188 -16.558594 9.339844 -16.75 9.433594 -16.847656 C 9.53125 -16.945312 9.675781 -16.992188 9.867188 -16.992188 C 9.964844 -17.039062 10.203125 -17.089844 10.492188 -17.089844 C 10.6875 -17.089844 10.925781 -17.039062 11.214844 -17.039062 L 19.832031 -17.039062 C 21.660156 -17.089844 22.863281 -17.136719 23.488281 -17.136719 C 24.644531 -17.230469 25.511719 -17.519531 25.992188 -17.953125 C 26.425781 -18.339844 26.761719 -19.011719 26.957031 -19.929688 C 27.148438 -20.601562 27.339844 -21.902344 27.628906 -23.828125 Z M 9.53125 -23.828125 "/></g></g></g></svg>